<?xml version="1.0" encoding="UTF-8"?>
<svg id="Layer_1" xmlns="http://www.w3.org/2000/svg" version="1.1" viewBox="0 0 512 512">
  <!-- Generator: Adobe Illustrator 29.3.0, SVG Export Plug-In . SVG Version: 2.1.0 Build 146)  -->
  <defs>
    <style>
      .st0 {
        fill: #bdbdbd;
      }

      .st1 {
        fill: #010101;
      }

      .st2 {
        display: none;
        fill: #fefefe;
      }

      .st3 {
        fill: #5c5c5c;
      }

      .st4 {
        fill: #fff;
      }

      .st5 {
        fill: #626262;
      }

      .st6 {
        fill: #c2c2c2;
      }
    </style>
  </defs>
  <g>
    <path class="st1" d="M231.79,4.29c88.98-5.51,160.36,34.14,216.72,99.69,116.12,135.07,54.05,345.4-116.52,394.51-105.42,30.36-199.87-10.64-268.51-90.48C-67.71,255.41,31.58,16.7,231.79,4.29ZM484.01,248c0-130.34-105.67-236.01-236.01-236.01S11.99,117.66,11.99,248s105.67,236.01,236.01,236.01,236.01-105.67,236.01-236.01h0ZM168.01,479.99c16.49,6.55,33.29,12.38,50.81,15.7,172.1,32.58,318.4-124.32,272.9-293.9-3.1-11.57-7.53-22.62-11.73-33.78-1.86-.23-.79,2.04-.55,3.04,2.5,10.35,6.24,20.17,8.24,30.76,32.08,169.83-116.04,317.95-285.87,285.87-10.59-2-20.42-5.74-30.76-8.24-1.01-.24-3.27-1.31-3.04.55h0Z"/>
    <path class="st2" d="M484.01,248c0,130.34-105.67,236.01-236.01,236.01S11.99,378.34,11.99,248,117.66,11.99,248,11.99s236.01,105.67,236.01,236.01ZM271.75,63.76c1.04-1.02,1.41-3.35.84-4.77-7.01-10.27-12.03-21.9-18.79-32.29-1.86-2.85-3.64-7.33-7.81-5.22-3.77,1.9-19.06,33.59-22.89,39.03.27,4.19,2.81,4.24,6.36,4.54,9.7.82,27.38.82,37.09,0,1.57-.13,4.07-.16,5.21-1.28h0ZM420.02,248c0-95-77.02-172.02-172.02-172.02S75.98,153,75.98,248s77.02,172.02,172.02,172.02,172.02-77.02,172.02-172.02h0ZM248,426.39l-25.61,25.61,25.61,25.61,25.61-25.61-25.61-25.61h0Z"/>
    <circle class="st4" cx="247.97" cy="248" r="237.2"/>
    <g>
      <path class="st1" d="M248,426.39l25.61,25.61-25.61,25.61-25.61-25.61,25.61-25.61h0ZM248,437.41l-14.59,14.59,14.59,14.59,14.59-14.59-14.59-14.59Z"/>
      <rect class="st3" x="237.68" y="441.68" width="20.63" height="20.63" transform="translate(-246.98 307.75) rotate(-45)"/>
    </g>
    <path class="st0" d="M168.01,479.99c-.23-1.86,2.04-.79,3.04-.55,10.35,2.5,20.17,6.24,30.76,8.24,169.83,32.08,317.95-116.03,285.87-285.87-2-10.59-5.74-20.42-8.24-30.76-.24-1.01-1.31-3.27.55-3.04,4.2,11.16,8.62,22.21,11.73,33.78,45.5,169.58-100.8,326.48-272.9,293.9-17.51-3.32-34.32-9.14-50.81-15.7h0Z"/>
    <g>
      <path class="st1" d="M420.02,248c0,95-77.02,172.02-172.02,172.02s-172.02-77.02-172.02-172.02S153,75.98,248,75.98s172.02,77.02,172.02,172.02h0ZM316.99,99.01c-49.49-22.65-107.34-19.53-153.91,8.57-71.04,42.85-99.07,133.67-64.07,209.41,1.91.24.52-1.81.31-2.81-1.13-5.35-3.04-10.61-4.03-15.98-22.61-122.53,80.4-225.51,202.91-202.91,5.37.99,10.63,2.9,15.98,4.03,1,.21,3.05,1.6,2.81-.31h0ZM251.8,100.3c-120.98,8.86-191.11,143.32-128.6,248.01,35.54,59.53,117.98,76.15,180.58,53.96,96.57-34.23,137.78-150.24,85.04-238.58-27.3-45.72-85.09-67.2-137.01-63.4h-.01Z"/>
      <path class="st6" d="M251.8,100.67c51.92-3.8,109.71,17.67,137.01,63.4,52.74,88.34,11.53,204.35-85.04,238.58-62.6,22.19-145.04,5.56-180.58-53.96-62.51-104.69,7.62-239.15,128.6-248.01h.01ZM193,230.37h-49v14l11.99,2.01-.57,90.11-11.42,1.88v14h86v-34h-18l-1,17h-32v-89l14-2v-14ZM271,230.37h-23v20h23v-20ZM318,230.37h-35v14l12,2v106h20c.45,0,1.44-7.72,1.01-9,4.26,1.2,5.92,5.38,9.94,7.55,8.66,4.66,22.31,3.67,30.38-1.72,17.76-11.86,18.29-42.45,12.13-60.79-7.76-23.1-33.49-30.33-50.46-12.04v-46h0ZM272,268.37h-36c.54,2.88-.95,11.15.43,13.07,2.16,3,11.83-.93,12.62,5.38,1.86,14.9-1.52,33.56,0,48.89l-11.04,2.66v14h44v-14c0-.53-10-.33-10-2.5v-67.5h-.01Z"/>
      <path class="st0" d="M316.99,99.01c.24,1.91-1.81.52-2.81.31-5.35-1.13-10.61-3.04-15.98-4.03-122.51-22.6-225.52,80.38-202.91,202.91.99,5.37,2.9,10.63,4.03,15.98.21,1,1.6,3.05-.31,2.81-35.01-75.75-6.97-166.56,64.07-209.41,46.58-28.1,104.42-31.21,153.91-8.57h0Z"/>
      <g>
        <path class="st1" d="M318,230v46c16.97-18.29,42.7-11.06,50.46,12.04,6.16,18.34,5.64,48.93-12.13,60.79-8.07,5.39-21.72,6.37-30.38,1.72-4.03-2.17-5.68-6.35-9.94-7.55.44,1.28-.55,9-1.01,9h-20v-106l-12-2v-14h35ZM327.73,284.23c-3.34.69-8.74,5.04-9.52,8.48-.96,4.27-.9,29.02-.15,33.73,1.49,9.45,17.12,11.86,24.3,6.42,9.54-7.22,8.52-38.53-.44-46.28-3.42-2.96-9.92-3.23-14.2-2.35h.01Z"/>
        <polygon class="st1" points="193 230 193 244 179 246 179 335 211 335 212 318 230 318 230 352 144 352 144 338 155.42 336.12 155.99 246.01 144 244 144 230 193 230"/>
        <path class="st1" d="M272,268v67.5c0,2.17,10,1.97,10,2.5v14h-44v-14l11.04-2.66c-1.51-15.32,1.87-33.99,0-48.89-.79-6.31-10.45-2.39-12.62-5.38-1.38-1.92.1-10.19-.43-13.07h36.01Z"/>
        <rect class="st1" x="248" y="230" width="23" height="20"/>
      </g>
      <path class="st6" d="M327.73,284.23c4.28-.88,10.77-.62,14.2,2.35,8.96,7.75,9.97,39.07.44,46.28-7.19,5.44-22.81,3.03-24.3-6.42-.74-4.71-.81-29.46.15-33.73.78-3.44,6.18-7.79,9.52-8.48h-.01Z"/>
    </g>
    <g>
      <path class="st1" d="M271.75,63.76c-1.14,1.12-3.64,1.15-5.21,1.28-9.7.82-27.38.82-37.09,0-3.55-.3-6.09-.35-6.36-4.54,3.84-5.44,19.13-37.13,22.89-39.03,4.18-2.1,5.96,2.37,7.81,5.22,6.76,10.39,11.78,22.02,18.79,32.29.56,1.42.19,3.75-.84,4.77h0ZM262,57c-4.59-6.2-7.77-15.37-12.14-21.36-.61-.84-.99-1.97-2.34-1.64s-11.28,20.36-13.51,23h28-.01Z"/>
      <path class="st5" d="M262,57h-28c2.24-2.64,12.22-22.69,13.51-23s1.73.8,2.34,1.64c4.37,5.99,7.55,15.16,12.14,21.36h.01Z"/>
    </g>
  </g>
  <g id="oCvhRx.tif">
    <g>
      <path class="st4" d="M288.22,203.75c.74,1.94.67,3.91,1.87,5.73,3.06,4.65,11.73,3.9,12.35-2.06l8.93,2.35c-5.65,13.71-27.4,12.83-31.54-1.6-2.95-10.28.62-23.21,12.58-25.11,11.24-1.78,19.07,4.69,19.96,15.79.13,1.57.55,3.81-.72,4.9h-23.43ZM302.96,197.47c.51-10.58-14.09-10.18-14.21,0h14.21Z"/>
      <g>
        <path class="st4" d="M328.76,183.87l1.05,6.27c1.14-4.36,6.29-6.6,10.53-6.8v6.28c-4.24-.37-8.4,2.16-9.89,6.12-.27.73-1.16,4.08-1.16,4.6v12.29h4.21v6.28h-17.37v-6.28h4.21v-22.49h-4.21v-6.28h12.63Z"/>
        <path class="st4" d="M278.74,192.08h-12.14"/>
        <polygon class="st4" points="255.06 183.87 255.07 190.15 251.9 190.42 257.96 210.03 264 190.4 260.85 190.15 260.85 183.87 277.17 183.87 276.94 189.66 272.48 190.2 263.96 218.87 252.67 218.96 243.02 190.46 238.74 190.15 238.75 183.87 255.06 183.87"/>
        <path class="st4" d="M343.49,210.29l8.1-2.4c.97,6.07,13.08,7.27,13.35,1.26.23-5.15-15.28-5.08-19.04-10.67-7.82-11.61,12.96-20.18,21.02-12l.26-2.61h5.79v8.9l-7.56,1.61c-1.07-6.95-14.86-5.32-12.18.46,2.14,4.62,18.07,3.68,20.04,12.01,2.13,8.98-7.11,13.19-14.8,12.61-3.29-.25-5.79-1.87-8.66-3.16v2.62h-6.32v-8.63h0Z"/>
        <g>
          <path class="st4" d="M144,206.89l9.13-1.6c1.23,2.72,2.06,4.87,5.09,6.04,8.85,3.43,15.87-5.67,7.3-10.4-6.83-3.76-18.22-3.78-20.24-13.37-3.25-15.49,17.87-20.96,27.66-12.06v-3.66h6.32v12.03l-9.47,1.57c-.58-8.66-15-9.71-15.23-.73-.16,6.45,12.97,8.44,17.68,11.1,5.98,3.37,8.81,9.42,5.91,15.99-3.95,8.95-21.43,10.01-28.11,3.46l-.26,3.66h-5.79v-12.03h0Z"/>
          <path class="st4" d="M197.57,183.49c24.72-2.85,25.69,33.9,5.05,35.88-24.32,2.33-24.89-33.6-5.05-35.88ZM204.88,210.9c4.32-4.32,4.17-19.05-2.83-20.64-11.43-2.59-11.71,20.07-3.86,22.13,2.38.62,4.93.26,6.68-1.5h.01Z"/>
          <polygon class="st4" points="232.96 168.7 232.96 212.64 237.17 212.64 237.17 218.92 219.8 218.92 219.79 212.64 224.01 212.64 224.01 174.98 219.79 174.98 219.8 168.7 232.96 168.7"/>
        </g>
      </g>
    </g>
  </g>
</svg>