<?xml version="1.0" encoding="UTF-8"?>
<svg id="Layer_1" xmlns="http://www.w3.org/2000/svg" version="1.1" viewBox="0 0 1125 1125">
  <!-- Generator: Adobe Illustrator 29.3.0, SVG Export Plug-In . SVG Version: 2.1.0 Build 146)  -->
  <defs>
    <style>
      .st0 {
        fill: #fff;
      }
    </style>
  </defs>
  <path class="st0" d="M1125,0v1125H0V0h1125ZM994.17,238.79c-24.05-29.24-57.13-61.63-85.1-87.85C767.49,18.2,556.47-25.6,372.2,37.3,128.61,120.45-22.4,366.82,14.75,622.73c21.87,150.7,100.71,262.06,212.19,359.65,126.04,110.33,290.69,155.04,455.93,123.36,274.14-52.55,461.3-308.51,430.13-586.22-11.48-102.27-53.61-201.44-118.83-280.72Z"/>
  <path d="M994.17,238.79c65.21,79.28,107.35,178.45,118.83,280.72,31.17,277.71-155.99,533.67-430.13,586.22-165.24,31.67-329.89-13.04-455.93-123.36-111.48-97.58-190.31-208.95-212.19-359.65C-22.4,366.82,128.61,120.45,372.2,37.3c184.27-62.9,395.28-19.1,536.87,113.65,27.96,26.22,61.05,58.61,85.1,87.85ZM1063.64,544.81c0-286.28-232.08-518.36-518.36-518.36S26.92,258.53,26.92,544.81s232.08,518.36,518.36,518.36,518.36-232.08,518.36-518.36ZM356.57,1047.68c13.05,5.51,25.89,11.45,39.15,16.5,159.2,60.67,337.53,39.2,477.57-56.61,174.6-119.44,259.31-334.03,212.73-541.72-8.46-37.74-21.4-74.96-38.33-109.63-1.54-.68-.31.98-.13,1.46,49.79,128.76,43.54,279.59-12.42,405.21-111.98,251.36-395.15,376.7-658.45,290.99-5.69-1.85-12.49-5.23-18.11-6.56-.67-.16-2.18-.88-2.03.36Z"/>
  <path class="st0" d="M1063.64,544.81c0,286.28-232.08,518.36-518.36,518.36S26.92,831.09,26.92,544.81,259,26.45,545.28,26.45s518.36,232.08,518.36,518.36ZM542.99,46.15c-3.39.62-4.62,3.05-6.36,5.63-16.15,24.11-28.67,52.83-44.66,77.3-3.55,6.69.89,12.92,8.18,13.57,28.66,2.53,60.98-1.97,90.03,0,5.53-.1,10.26-4.68,9.59-10.29l-46.99-82.33c-2.81-3.62-5.09-4.75-9.8-3.88ZM923.11,544.81c0-208.67-169.16-377.82-377.82-377.82s-377.82,169.16-377.82,377.82,169.16,377.82,377.82,377.82,377.82-169.16,377.82-377.82ZM542.99,940.54c-1.36.28-2.75,1.33-3.83,2.16-15.12,11.64-29.19,31.89-44.32,44.32-3.32,4.49-3,8.55.68,12.69,14.65,12.51,27.92,30.73,42.65,42.66,4.57,3.7,7.94,4.76,13.03,1,12.71-15.11,31.91-28.85,43.99-43.99,3.81-4.78,3.7-9.05-.42-13.61-13.11-14.48-29.53-27.33-42.32-42.32-2.78-2.49-5.6-3.7-9.44-2.92Z"/>
  <path class="st0" d="M356.57,1047.68c-.15-1.24,1.35-.52,2.03-.36,5.61,1.33,12.41,4.71,18.11,6.56,263.3,85.71,546.46-39.63,658.45-290.99,55.96-125.61,62.21-276.45,12.42-405.21-.19-.49-1.41-2.14.13-1.46,16.93,34.67,29.86,71.9,38.33,109.63,46.58,207.7-38.13,422.28-212.73,541.72-140.04,95.8-318.37,117.27-477.57,56.61-13.26-5.05-26.1-11-39.15-16.5Z"/>
  <path d="M923.11,544.81c0,208.67-169.16,377.82-377.82,377.82s-377.82-169.16-377.82-377.82,169.16-377.82,377.82-377.82,377.82,169.16,377.82,377.82ZM706.45,222.61c-79.71-39.76-172.73-48.69-258.73-24.48-183.09,51.56-295.18,237.25-254.12,424.36,6.39,29.13,16.75,57.19,29.67,83.96,1.24.15.52-1.36.36-2.03-1.82-7.59-5.35-15.97-7.51-23.82-46.04-167.31,27.3-343.17,176.64-428.8,86.96-49.87,190.89-62.73,287.84-36.35,7.85,2.14,16.19,5.68,23.82,7.51.67.16,2.18.88,2.03-.36ZM574.36,220.13c-258.16,4.76-429.7,273.56-320.55,510.77,19.39,42.14,44.76,80.11,82.82,107.13,126.54,89.82,296.72,88.48,421.75-3.35,154.37-113.39,192.9-329.09,86.32-489.39-11.7-17.6-23.85-33.65-40.33-46.97-61.31-49.57-140.66-76.69-219.5-78.41l-10.49.22Z"/>
  <path d="M542.99,46.15c4.7-.87,6.99.26,9.8,3.88l46.99,82.33c.67,5.61-4.07,10.18-9.59,10.29-29.05-1.97-61.37,2.53-90.03,0-7.29-.64-11.73-6.88-8.18-13.57,15.99-24.47,28.51-53.19,44.66-77.3,1.73-2.59,2.96-5.01,6.36-5.63Z"/>
  <path d="M542.99,940.54c3.83-.78,6.66.43,9.44,2.92,12.79,15,29.21,27.84,42.32,42.32,4.13,4.56,4.23,8.83.42,13.61-12.07,15.14-31.28,28.88-43.99,43.99-5.09,3.76-8.46,2.7-13.03-1-14.72-11.93-27.99-30.15-42.65-42.66-3.68-4.14-4-8.19-.68-12.69,15.13-12.42,29.2-32.68,44.32-44.32,1.09-.84,2.48-1.89,3.83-2.16Z"/>
  <path class="st0" d="M574.36,220.13l10.49-.22c78.84,1.72,158.19,28.84,219.5,78.41,16.49,13.33,28.63,29.38,40.33,46.97,106.58,160.3,68.04,376.01-86.32,489.39-125.02,91.83-295.21,93.17-421.75,3.35-38.06-27.02-63.43-64.99-82.82-107.13-109.15-237.21,62.39-506.01,320.55-510.77ZM499.18,249.26l-12.64,3.36,16.32,59.95c5.02,12.14,16.26,8.98,26.33,5.69l.61-.77-3.26-11.96-10.38,2.9-1.13-1.36-15.85-57.8ZM539.17,259.92h-15.33l31.63,55.37,12.03-.71,28.98-55.99-15,1.32-20.65,39.34-21.66-39.33ZM652.43,313.21c3.23-13.24,15.86-29.34-2.45-37.14-4.84-2.06-26.38-9.75-30.59-10.1-4.92-.4-10.1,2.22-12.91,6.27-1.65,2.37-10.64,28.15-11.16,31.49-1.14,7.28,1.59,12.97,8.32,16.02,10.76,4.88,31.42,8.3,40.38,13.61,1.17.69,1.32,1.92,2.13,2.53,1.46,1.1,8.09,6.14,9.24,5.92l24.4-34.28,25.7,17.07c1.17,0,6.25-7.57,7.03-8.99.32-.58,1-1,.32-1.72l-26.01-18c-5.8-3.2-13.11-1.75-17.35,3.34l-23.32,33.33,2.94-11.26-40.54-13.44,1.95-8.62,41.94,13.97ZM468.35,279.41c-2.69.46-28.28,14.61-31.09,16.89-3.62,2.94-5.9,7.87-5.34,12.54.38,3.15,13.52,27.13,16.05,30.61,3.46,4.76,8.18,7.17,14.16,6.38,3.31-.44,25.24-12.78,29.25-15.4,6.28-4.11,9.59-9.17,7.28-17.01-1.08-3.66-13.24-25.29-15.85-28.8-3.51-4.72-8.72-6.2-14.46-5.21ZM401.7,308.74c-1.52.26-3.82,1.33-5.11,2.21-4.39,3.01-27.22,29.41-30.7,34.61-3.69,5.52-4.07,12.37.32,17.68,2.04,2.47,13.12,11.68,15.88,12.78,5.92,2.35,11.43.49,15.81-3.78,8.19-7.97,15.65-19.21,23.63-27.69,1.01-1.07,3.66-4.39,5-3.7l9.98,9.33-26.94,31.07c-2.73,2.33-3.69-3.21-6.37-1.74-.5.27-7.15,8.26-7.23,8.83,8.14,10.44,16.8,8.75,25.25-.11,7.37-7.72,20.03-21.58,25.97-30.01,2.95-4.19,3.52-8.85,1.66-13.65-1.52-3.92-15.54-16.17-19.61-17.04-5.12-1.1-10.55.03-14.05,4.02l-28.31,32.33-10.36-9.65,27.02-31.72,1.04-.35,4.21,3.02,8.3-9.62c-3.85-4.56-9.18-7.87-15.39-6.83ZM556.36,326.1c-107.67,6.73-172.8,125.03-120.61,220.19,16.98,30.95,44.08,46.06,57.09,80.87,9.15,24.49,5.84,38.6,7.65,63,3.76,50.83,64.67,32.16,98.32,35.62,15.89-1.42,30.85-15.61,32.32-31.66,1.7-18.5-.74-33.64,3.8-52.85,7.95-33.66,21.92-44.71,43.21-68.76,87.37-98.73,9.48-254.61-121.78-246.41ZM698.26,357.75c.53-.48.18-1.31-.13-1.86-.25-.46-5.76-7.11-6.34-7.66-.47-.45-.74-1.14-1.58-.96-8.07,6.48-8.23,13.44-2.41,21.6,3.11,4.36,18.87,23.97,22.48,25.5,8.14,3.46,14.43-.49,20.16-6.15,5.41-5.34,7.11-10.85,3.21-17.89l-19.62-24.42c-.39-1.48,4.2-5.15,5.94-5.29,1.45.38,18.84,21.55,19.03,23.04.13.99-1.43,1.35-.94,2.84.73,2.26,6.1,6.75,7.36,9.33,5.87-3.34,8.38-10.34,6.17-16.78-1.22-3.56-16.98-22.53-20.47-26.19-5.76-6.04-11.63-8.15-19.3-3.27-6.38,4.06-13.18,10.59-11.08,18.99,4.75,10.35,14.72,18.36,21.06,27.6.48.7.84.7.34,1.68-.4.78-5.44,4.85-6.37,4.38l-18.32-22.38-.38-1.65,1.16-.49ZM525.67,737.94c-10.56,3.38-9.79,18.85,1.9,20.44h70.53c11.28-2.48,10.96-17.62.02-20.56l-72.44.11ZM535.69,764.61c-12.76,1.54-14.02,18.41-1.21,20.86l54.98.26c11.34-3.12,9.97-18.77-1.46-20.44-12.59-1.84-32.36-.05-45.84-.15-2.29-.02-3.67-.86-6.46-.53ZM579.16,791.77h-16.33l-1,1v15.66h17.33v-16.66ZM607.15,791.77h-16.33l-1,1v94.64l1,1h59.32c.28,0,4.58-1.75,5.23-2.1,5.16-2.8,8.63-9.08,9.13-14.87.8-9.25,1.06-32.25-.32-41.05-.86-5.45-7.57-14.63-13.36-14.63h-43.65v-23.99ZM482.52,797.76h-16.33l-1,1v89.64h90.64v-17.33h-73.31v-73.31ZM561.83,815.76v72.65h17.33v-72.65h-17.33Z"/>
  <path class="st0" d="M706.45,222.61c.15,1.24-1.36.52-2.03.36-7.63-1.83-15.96-5.38-23.82-7.51-96.95-26.37-200.88-13.51-287.84,36.35-149.34,85.63-222.68,261.49-176.64,428.8,2.16,7.85,5.69,16.22,7.51,23.82.16.67.88,2.18-.36,2.03-12.92-26.77-23.28-54.83-29.67-83.96-41.05-187.11,71.03-372.8,254.12-424.36,85.99-24.22,179.02-15.28,258.73,24.48Z"/>
  <path d="M556.36,326.1c131.26-8.2,209.15,147.68,121.78,246.41-21.29,24.05-35.25,35.1-43.21,68.76-4.54,19.22-2.1,34.35-3.8,52.85-1.47,16.04-16.43,30.24-32.32,31.66-33.65-3.46-94.56,15.21-98.32-35.62-1.8-24.4,1.5-38.51-7.65-63-13-34.81-40.11-49.92-57.09-80.87-52.19-95.16,12.94-213.46,120.61-220.19ZM546.5,506.52h-10.33c-.42,0-3.05-2.07-3.32-2.67-2.81-6.19,5.16-8.83,4.93-14.58-5.62-2.98-15.51-2.28-17.92-9.03.48-2.11,13.03-2.58,15.31-2.38-4.83-10.88,12.17-9.29,17.32-14.33-13-9.58,8.97-6.9,9.94-7.74.17-.15.62-3.05,1.49-4.17,1.45-1.85,3.91-1.26,3.91-4.75v-12c0-.68,2.09-1.37,2.66-1,1.26.84.4,12.68.69,14.98,1.11,1.39,3.78,6.12,4.97,6.36,3.84.76,13.47-2.09,13.39,3.98l-5.03,3.67c-.04,1.13,17.9,5.13,17.97,9.32l-1.32,4.35h13c1.98,0,2.31,2.86,1.01,4.34-2,2.28-13.54,5.23-15.04,8.34-1.22,2.53,5.98,7.29,2.42,12.37-1.89,2.69-9.89,2.4-10.61,4.72l-6.1,72.54c5.96,34.97,10.54,70.16,16.1,105.19.29,1.84.36,5.45,1.88,6.44-1.72-32.98,2.71-64.49,18.8-93.5,15.4-27.76,40.94-43.34,53.97-72.66,39.61-89.14-35.96-185.11-131.54-168.86-83.8,14.25-126.86,110.67-81.73,183.28,10.36,16.67,25.83,28.26,37.07,44.23,16.41,23.32,26.48,51.92,28.11,80.53.29,5.08-.2,10.24,0,15.33.03.81-.5,2.48.66,2.32l19.99-101.64-2.66-72.97ZM571.16,455.86c.26-2.15-3.13-3.8-3.99-1.66-1.04,2.59,2.64,1.49,3.99,1.66ZM581.83,459.2h-26.66c-.31,2.27,2.04.76,2.06,3.65.03,7.02-11.73,8.77-16.72,11.02-.8,1.07,2.84,4.11,4.29,3.37l49.7-1.04c4.01-3.92,1.24-5.23-2.8-6.53-3.72-1.2-12.27-1.35-11.2-7.43.23-1.28,1.53-1.7,1.34-3.03ZM541.17,494.52h54.65l-.81-3.86c-.88.09-2.4-.8-2.86-.8h-15.33c-.23,0-.77-.64-1.25-.62l-.38-2c.29-.47,9.4-1.35,10.96-1.42,2.07-.1,3.7.72,5.34.71,2.63-.01,9.88-2.4,12.15-3.83.68-.43,1.17.04.85-1.5l-69.97.67c.05,2.61,3.8,2.11,5.8,3.19,4.16,2.25,2.36,6.04.86,9.47ZM595.82,499.19c-1.7.02-3.28-.58-4.97-.7-11.34-.78-39.39-1.31-49.72.99-1.1.24-3.87.8-3.29,2.37,1,.8,13.23-1.25,15.63-1.36,12.64-.55,27.91,1.42,40.04.05,1-.11,2.06-.14,2.31-1.35ZM535.51,698.46h35.66c-3.16-32.78-6.87-65.5-10-98.3-1.17-12.28-2.97-24.29-3.35-36.63-.6-19.2.99-38.55-.64-57.68-1.07.04-4.25-.45-4.5.97l3.15,72.66-22.58,114.74c-.61,1.82.43,3.85,2.27,4.23ZM577.83,698.46h18.33c1.56,0,.4-6.24.24-7.57-4.5-37.25-12.22-74.27-17.16-111.47,2.28-19.45,3.23-39.07,4.6-58.57.1-1.49,2.26-14.78.99-15.01s-1.62-.4-1.67.98c-.29,7.48-1.97,26.86-4.83,33.17-2.62,5.78-9.72,5.03-11.01-1.31-1.93-9.54-1.06-20.85-2.12-30.53-.11-1-.14-2.06-1.35-2.31l1.33,72.97,12.66,119.64ZM578.5,505.85h-8.67s2.67,32.65,2.67,32.65c1.73.2,1.06,0,1.35-.97,3.02-10.23,3.27-21.15,4.65-31.68Z"/>
  <path d="M607.15,791.77v23.99h43.65c5.79,0,12.51,9.18,13.36,14.63,1.38,8.8,1.12,31.8.32,41.05-.5,5.79-3.96,12.06-9.13,14.87-.64.35-4.95,2.1-5.23,2.1h-59.32l-1-1v-94.64l1-1h16.33ZM647.14,832.42h-39.99v39.32h39.99v-39.32Z"/>
  <path d="M652.43,313.21l-41.94-13.97-1.95,8.62,40.54,13.44-2.94,11.26,23.32-33.33c4.24-5.09,11.55-6.55,17.35-3.34l26.01,18c.68.72,0,1.14-.32,1.72-.78,1.42-5.86,8.99-7.03,8.99l-25.7-17.07-24.4,34.28c-1.14.22-7.78-4.81-9.24-5.92-.81-.62-.96-1.84-2.13-2.53-8.96-5.3-29.62-8.73-40.38-13.61-6.73-3.05-9.46-8.74-8.32-16.02.52-3.34,9.52-29.12,11.16-31.49,2.81-4.05,7.99-6.67,12.91-6.27,4.21.35,25.75,8.04,30.59,10.1,18.31,7.79,5.68,23.89,2.45,37.14ZM617.54,278.94l-3.18,9.46,29.47,9.91,3.18-9.46-29.47-9.91Z"/>
  <path d="M401.7,308.74c6.21-1.04,11.53,2.27,15.39,6.83l-8.3,9.62-4.21-3.02-1.04.35-27.02,31.72,10.36,9.65,28.31-32.33c3.5-3.99,8.93-5.12,14.05-4.02,4.07.87,18.09,13.12,19.61,17.04,1.86,4.8,1.29,9.47-1.66,13.65-5.94,8.43-18.6,22.29-25.97,30.01-8.46,8.86-17.11,10.55-25.25.11.09-.56,6.73-8.55,7.23-8.83,2.68-1.47,3.64,4.07,6.37,1.74l26.94-31.07-9.98-9.33c-1.35-.69-3.99,2.63-5,3.7-7.99,8.48-15.44,19.72-23.63,27.69-4.39,4.27-9.89,6.13-15.81,3.78-2.76-1.1-13.84-10.31-15.88-12.78-4.39-5.31-4.01-12.15-.32-17.68,3.48-5.21,26.31-31.6,30.7-34.61,1.29-.88,3.59-1.96,5.11-2.21Z"/>
  <polygon points="482.52 797.76 482.52 871.08 555.84 871.08 555.84 888.4 465.2 888.4 465.2 798.76 466.2 797.76 482.52 797.76"/>
  <path d="M698.26,357.75l-1.16.49.38,1.65,18.32,22.38c.93.47,5.97-3.59,6.37-4.38.5-.98.14-.98-.34-1.68-6.35-9.24-16.32-17.26-21.06-27.6-2.1-8.4,4.7-14.94,11.08-18.99,7.67-4.88,13.54-2.77,19.3,3.27,3.49,3.66,19.25,22.63,20.47,26.19,2.21,6.44-.3,13.45-6.17,16.78-1.26-2.58-6.63-7.07-7.36-9.33-.48-1.5,1.07-1.85.94-2.84-.19-1.48-17.59-22.66-19.03-23.04-1.74.14-6.34,3.81-5.94,5.29l19.62,24.42c3.9,7.03,2.2,12.55-3.21,17.89-5.74,5.66-12.02,9.61-20.16,6.15-3.61-1.54-19.37-21.14-22.48-25.5-5.82-8.16-5.66-15.12,2.41-21.6.84-.18,1.11.51,1.58.96.58.55,6.08,7.2,6.34,7.66.3.55.66,1.38.13,1.86Z"/>
  <path d="M468.35,279.41c5.74-.99,10.95.49,14.46,5.21,2.62,3.52,14.77,25.14,15.85,28.8,2.31,7.84-1,12.9-7.28,17.01-4.01,2.62-25.94,14.96-29.25,15.4-5.98.8-10.7-1.62-14.16-6.38-2.53-3.48-15.67-27.47-16.05-30.61-.56-4.67,1.71-9.6,5.34-12.54,2.82-2.29,28.4-16.43,31.09-16.89ZM471.91,291.75l-27.15,15.08,14.67,26.42,27.15-15.08-14.67-26.42Z"/>
  <path d="M525.67,737.94l72.44-.11c10.94,2.94,11.26,18.08-.02,20.56h-70.53c-11.69-1.59-12.46-17.06-1.9-20.44Z"/>
  <polygon points="539.17 259.92 560.83 299.25 581.49 259.91 596.49 258.59 567.51 314.58 555.47 315.29 523.84 259.92 539.17 259.92"/>
  <path d="M535.69,764.61c2.78-.34,4.17.51,6.46.53,13.48.09,33.25-1.69,45.84.15,11.43,1.67,12.81,17.32,1.46,20.44l-54.98-.26c-12.81-2.45-11.55-19.32,1.21-20.86Z"/>
  <rect x="561.83" y="815.76" width="17.33" height="72.65"/>
  <path d="M499.18,249.26l15.85,57.8,1.13,1.36,10.38-2.9,3.26,11.96-.61.77c-10.06,3.3-21.31,6.45-26.33-5.69l-16.32-59.95,12.64-3.36Z"/>
  <polygon points="579.16 791.77 579.16 808.43 561.83 808.43 561.83 792.77 562.83 791.77 579.16 791.77"/>
  <path class="st0" d="M546.5,506.52l2.66,72.97-19.99,101.64c-1.16.16-.63-1.51-.66-2.32-.21-5.09.28-10.25,0-15.33-1.63-28.61-11.7-57.2-28.11-80.53-11.24-15.98-26.71-27.56-37.07-44.23-45.13-72.6-2.07-169.03,81.73-183.28,95.58-16.25,171.14,79.72,131.54,168.86-13.03,29.32-38.57,44.91-53.97,72.66-16.09,29.01-20.52,60.52-18.8,93.5-1.53-.99-1.59-4.6-1.88-6.44-5.57-35.03-10.15-70.23-16.1-105.19l6.1-72.54c.72-2.32,8.72-2.02,10.61-4.72,3.56-5.08-3.64-9.84-2.42-12.37,1.5-3.11,13.04-6.06,15.04-8.34,1.3-1.48.97-4.34-1.01-4.34h-13l1.32-4.35c-.08-4.18-18.02-8.18-17.97-9.32l5.03-3.67c.08-6.07-9.54-3.22-13.39-3.98-1.19-.24-3.86-4.96-4.97-6.36-.29-2.3.57-14.14-.69-14.98-.57-.38-2.66.32-2.66,1v12c0,3.49-2.46,2.9-3.91,4.75-.87,1.11-1.33,4.02-1.49,4.17-.97.84-22.94-1.84-9.94,7.74-5.15,5.04-22.15,3.45-17.32,14.33-2.28-.21-14.83.27-15.31,2.38,2.41,6.75,12.3,6.05,17.92,9.03.23,5.75-7.74,8.39-4.93,14.58.28.61,2.9,2.67,3.32,2.67h10.33Z"/>
  <path class="st0" d="M577.83,698.46l-12.66-119.64-1.33-72.97c1.21.25,1.24,1.31,1.35,2.31,1.06,9.68.19,20.99,2.12,30.53,1.29,6.34,8.39,7.09,11.01,1.31,2.86-6.32,4.54-25.7,4.83-33.17.05-1.38.41-1.2,1.67-.98s-.88,13.51-.99,15.01c-1.37,19.5-2.32,39.12-4.6,58.57,4.94,37.2,12.66,74.22,17.16,111.47.16,1.33,1.32,7.57-.24,7.57h-18.33Z"/>
  <path class="st0" d="M535.51,698.46c-1.84-.38-2.87-2.41-2.27-4.23l22.58-114.74-3.15-72.66c.25-1.42,3.43-.93,4.5-.97,1.62,19.13.04,38.48.64,57.68.38,12.34,2.18,24.35,3.35,36.63,3.13,32.8,6.85,65.52,10,98.3h-35.66Z"/>
  <path class="st0" d="M541.17,494.52c1.5-3.43,3.3-7.22-.86-9.47-2-1.08-5.75-.58-5.8-3.19l69.97-.67c.32,1.54-.17,1.07-.85,1.5-2.27,1.43-9.52,3.81-12.15,3.83-1.64,0-3.26-.81-5.34-.71-1.56.08-10.66.96-10.96,1.42l.38,2c.48-.02,1.03.62,1.25.62h15.33c.46,0,1.98.89,2.86.8l.81,3.86h-54.65Z"/>
  <path class="st0" d="M581.83,459.2c.19,1.33-1.11,1.75-1.34,3.03-1.07,6.08,7.48,6.23,11.2,7.43,4.04,1.3,6.81,2.62,2.8,6.53l-49.7,1.04c-1.45.75-5.09-2.3-4.29-3.37,4.99-2.25,16.75-4,16.72-11.02-.01-2.88-2.37-1.38-2.06-3.65h26.66Z"/>
  <path class="st0" d="M578.5,505.85c-1.38,10.53-1.63,21.44-4.65,31.68-.29.97.39,1.17-1.35.97l-2.67-32.65h8.67Z"/>
  <path class="st0" d="M595.82,499.19c-.25,1.21-1.31,1.24-2.31,1.35-12.13,1.36-27.4-.6-40.04-.05-2.4.1-14.63,2.16-15.63,1.36-.58-1.57,2.19-2.12,3.29-2.37,10.33-2.29,38.38-1.76,49.72-.99,1.69.12,3.27.72,4.97.7Z"/>
  <path class="st0" d="M571.16,455.86c-1.35-.17-5.03.94-3.99-1.66.86-2.15,4.25-.49,3.99,1.66Z"/>
  <rect class="st0" x="607.15" y="832.42" width="39.99" height="39.32"/>
  <rect class="st0" x="625.69" y="273.08" width="9.98" height="31.09" transform="translate(156.16 794.48) rotate(-71.42)"/>
  <rect class="st0" x="450.14" y="297.39" width="31.06" height="30.22" transform="translate(-93.15 265.4) rotate(-29.05)"/>
</svg>