<?xml version="1.0" encoding="UTF-8"?>
<svg id="Layer_1" xmlns="http://www.w3.org/2000/svg" version="1.1" viewBox="0 0 1125 1125">
  <!-- Generator: Adobe Illustrator 29.3.0, SVG Export Plug-In . SVG Version: 2.1.0 Build 146)  -->
  <defs>
    <style>
      .st0 {
        fill: #f6e4a9;
      }

      .st1 {
        fill: #f7f5db;
      }

      .st2 {
        fill: #040300;
      }

      .st3 {
        fill: #b79b00;
      }

      .st4 {
        fill: #dccf52;
      }

      .st5 {
        fill: #f1cd00;
      }

      .st6 {
        fill: #f3e4b9;
      }

      .st7 {
        fill: #f5e244;
      }

      .st8 {
        fill: #f5e275;
      }

      .st9 {
        fill: #171411;
      }

      .st10 {
        fill: #ecdfd8;
      }

      .st11 {
        fill: #040304;
      }

      .st12 {
        fill: #050403;
      }

      .st13 {
        fill: #f7e393;
      }

      .st14 {
        fill: #1e1814;
      }

      .st15 {
        fill: #f7f1b4;
      }
    </style>
  </defs>
  <path class="st11" d="M629.16,14.88c4.32,1.94,8.6,1.71,13.65,2.65,63.44,11.82,125.73,35.11,180.73,68.6,58.54,35.64,108.95,83.8,154.79,134.55,71.32,78.97,117.09,175.01,132.92,281.08,7.05,47.23,7.43,97.54,1.41,145.24-32.2,255.48-239.33,450.5-496.97,468.37-145.79,10.11-291.02-41.6-397.37-140.01-88.9-82.26-154.2-162.39-188.53-281.47-20.87-72.39-26.05-152.47-15.04-227.46C46.89,247.62,212.17,69.41,428.26,21.93c24.33-5.35,46.33-9.12,71.41-11.26,6.21-.53,14.2.12,20.04-.62,1.28-.16.64-1.28,1.91-1.44,16.29-2.06,43.39.17,60.07,1.36,7.91.56,42.42,2.65,47.46,4.9ZM1063.88,545c0-286.33-232.11-518.44-518.44-518.44S27,258.67,27,545s232.11,518.44,518.44,518.44,518.44-232.11,518.44-518.44ZM1047.33,356c.61,1.52,1.61,3.65,2,4.67,2.44,6.36,3.2,14.47,6.67,20.67,17.96,65.09,27.96,119.17,25.36,187.69-7.23,190.61-125.59,373.22-296.69,456.31-.45.22-.91.47-1.33.67-.18.09-.48-.08-.67,0-2.01.92-7.18,1.46-7.33,4-.19.08-.48-.08-.67,0-1.31.56-3.02.57-4,2-.2.06-.47-.07-.67,0-1.96.66-4.39,1.05-6,2.67-.2.06-.46-.06-.67,0-1.34.41-3.07.2-2.67,2-.21.06-.46-.06-.67,0-8.68,2.56-16.88,6.72-25.33,10-.22.04-.45-.04-.67,0-2.36.42-.74.32-1.33,1.33-.06.11-.49-.09-.67,0-.19.1-1.26.65-1.33.67-.21.06-.46-.06-.67,0-3.92,1.21-8.05,2.27-12.02,3.68-1.06.38-2.37-.15-1.98,1.65-.38.11-.96-.11-1.33,0-1.2.34-1.24.64-1.33.67-.21.06-.46-.06-.67,0-5.31,1.49-10.74,2.61-16.01,4.32-1.05.34-2.22.41-2.66,1.68-.21.05-.46-.05-.67,0-27.56,6.74-53.54,11.71-81.67,16.03-1.24.19-2.7-.85-2.33,1.31-.66.06-1.34-.06-2,0-41.33,3.52-81.68,3.02-123.33-.67-.66-.06-1.34.06-2,0l-37.33-6c-.43-.05-.91.07-1.33,0-8.62-2.1-17.32-4.18-26-6-.4-.08-.93.08-1.33,0-6.77-2.14-13.77-4.35-20.67-6-.39-.09-.94.09-1.33,0-3.27-1.32-7.26-2.83-10.65-3.7-1.24-.32-2.52-.09-3.35-.3-1.66-.41-3.17-.96-4.67-1.33.39-1.8-.91-1.28-1.98-1.65-4-1.4-8.05-2.24-12.02-3.68-1.74-.63-3.63-1.29-5.33-2-.1-.04-.58-.94-1.6-1.37-1.49-.62-3.44-1.2-5.07-1.29,1.14,2.05,4.13,2.46,6,3.33,1.55.72,3.15,1.3,4.67,2,4,1.85,8.21,4.99,12.67,5.33,6.49,4.08,17.53,7.87,24.99,10.68,224.56,84.52,476.99,3.83,611.16-192.86,96.36-141.26,116.31-317.58,55.85-477.81-.11-.3-.61-.51-.67-.67-.13-.34.13-.99,0-1.33-.19-.5-.65-.62-.67-.67-.12-.34.12-.97,0-1.33-.17-.5-.65-.62-.67-.67-.1-.38.1-.94,0-1.33-.63-2.58-.87-.8-1.33-1.33-.15-.17.1-1.46,0-2-.48-2.55-.89-.84-1.33-1.33-.09-.1-.16-1.73-.67-2.67-.16-.3-.59-.5-.67-.67s.08-.47,0-.67c-.15-.37-.63-.57-.67-.67-.13-.32.13-1,0-1.33-.19-.5-.65-.62-.67-.67-.07-.19.07-.47,0-.67-.52-1.39-1.24-2.41-1.33-2.67-.13-.34.13-1.02,0-1.33-.51-1.23-.09-3.09-2-2.67-.06-.21.05-.46,0-.67-.12-.48-.65-.62-.67-.67-.06-.2.07-.47,0-.67-.23-.67-.35-1.18-.67-2-.11-.27-.6-.49-.67-.67-.07-.19.08-.47,0-.67-.15-.37-.63-.57-.67-.67-.45-1.12-.79-2.7-1.33-4-.71-1.71-1.05-3.28-2-4.67l-3.99-8c.03,2.36,1.12,4.87,1.96,7.07.4,1.03,1.33,1.5,1.37,1.6Z"/>
  <path class="st15" d="M1063.88,545c0,286.33-232.11,518.44-518.44,518.44S27,831.33,27,545,259.12,26.56,545.44,26.56s518.44,232.11,518.44,518.44ZM543.16,46.16c-2.61.48-4.18,2.26-5.71,4.28l-44.9,77.77c-4.43,6.56.11,14.24,7.76,14.48,29.15-2.09,62.01,2.69,90.72,0,7.11-.67,11.3-7.22,7.76-13.81l-46.22-79.78c-2.62-2.9-5.58-3.65-9.41-2.94ZM923.46,545c0-208.77-169.24-378.02-378.02-378.02s-378.02,169.24-378.02,378.02,169.24,378.02,378.02,378.02,378.02-169.24,378.02-378.02ZM543.16,940.83c-1.17.22-2.29.66-3.18,1.48l-44.99,45.01c-3.19,3.51-2.97,7.91-.32,11.69l44.65,44.68c3.62,2.96,8.51,3.28,12.03,0l45.01-44.99c3.56-5.46,1.47-9.41-2.34-13.71-12.61-14.23-28.7-26.91-41.32-41.34-3.1-2.63-5.35-3.58-9.54-2.81Z"/>
  <path class="st1" d="M1056,372.67c.13.32-.13.99,0,1.33-.11,1.18.1,2.31,1.33,2.67.07.19-.07.47,0,.67l.67.67c.13.33-.13,1.01,0,1.33l.67.67c.08.2-.08.49,0,.67l.67.67c.51.94.57,2.56.67,2.67-.17,1.41-.07,1.5,1.33,1.33.1.54-.15,1.83,0,2-.16,1.42-.08,1.49,1.33,1.33.1.39-.1.96,0,1.33l.67.67c.12.36-.12.99,0,1.33l.67.67c.13.34-.13,1,0,1.33l.67.67c60.46,160.23,40.5,336.56-55.85,477.81-134.17,196.7-386.6,277.38-611.16,192.86-7.46-2.81-18.5-6.59-24.99-10.68-.82-.52-2.43-1.23-2.66-1.99,1.87.04,3.55.88,5.33,1.33,1.49.37,3.01.92,4.67,1.33.66,1,1.77,1.19,2.81,1.52,3.61,1.16,7.91,1.71,11.19,2.48.39.09.94-.09,1.33,0-.39,1.81.92,1.28,1.98,1.65,6.32,2.26,12.33,3.01,18.69,4.35.4.08.93-.08,1.33,0,.41,1.39,1.73,1.21,2.79,1.55,7.77,2.49,15.53,3.2,23.21,4.45.42.07.9-.05,1.33,0,1.1,1.47,4.81,1.98,6.64,2.36,10.22,2.08,20.72,2.75,30.69,3.64.66.06,1.34-.06,2,0,3.83,1.7,9.38,2.24,13.67,2.66,30.39,3.01,65.6,2.99,95.99,0,4.55-.45,9.1-1.68,13.67-1.99.66-.06,1.34.06,2,0,17.16-1.5,35.95-5.15,52.79-8.87,10.44-2.3,21.17-4.93,31.21-8.46.21-.05.46.05.67,0,6.18-1.51,13.07-2.96,18.67-6,.21-.06.46.06.67,0l1.33-.67c.38-.11.96.11,1.33,0,4.66-1.31,9.86-2.82,14-5.33.2-.06.46.06.67,0l1.33-.67c.17-.09.6.11.67,0,1.42.16,1.49.08,1.33-1.33.22-.04.45.04.67,0,8.58-1.54,17.6-6.12,25.33-10,.2-.06.46.06.67,0,1.35-.38,3.07-.23,2.67-2,.2-.06.46.06.67,0,1.97-.6,4.93-.85,6-2.67.2-.07.46.06.67,0,1.46-.46,2.98-.67,4-2,.19-.08.48.08.67,0,2.19-.91,5.43-2.55,7.33-4,.18-.08.49.09.67,0l1.33-.67c171.1-83.09,289.46-265.7,296.69-456.31,2.6-68.52-7.4-122.6-25.36-187.69-.64-2.31-1.09-6.4-2-9.33.15.3,1.51.59,2,.67Z"/>
  <path class="st1" d="M1053.33,368.67l.67.67c.05.21-.06.46,0,.67.15.54-.18,1.63,0,2-.29-.95-2.39-2.92-.67-4,.07.2-.06.46,0,.67Z"/>
  <path class="st6" d="M607.33,1078c-4.58.31-9.12,1.55-13.67,1.99-30.39,2.99-65.6,3.01-95.99,0-4.29-.43-9.84-.96-13.67-2.66,41.66,3.69,82,4.19,123.33.67Z"/>
  <path class="st6" d="M693.33,1060.67c-10.03,3.53-20.77,6.16-31.21,8.46-16.85,3.72-35.64,7.37-52.79,8.87-.38-2.15,1.09-1.12,2.33-1.31,28.14-4.32,54.11-9.29,81.67-16.03Z"/>
  <path class="st6" d="M482,1077.33c-9.97-.89-20.47-1.56-30.69-3.64-1.84-.37-5.55-.88-6.64-2.36l37.33,6Z"/>
  <path class="st6" d="M361.33,1048.67c3.97,1.44,8.02,2.28,12.02,3.68,1.06.37,2.37-.15,1.98,1.65-1.78-.44-3.46-1.29-5.33-1.33.23.76,1.84,1.48,2.66,1.99-4.45-.35-8.67-3.48-12.67-5.33l1.33-.67Z"/>
  <path class="st6" d="M443.33,1071.33c-7.68-1.25-15.44-1.96-23.21-4.45-1.06-.34-2.38-.16-2.79-1.55,8.68,1.82,17.38,3.9,26,6Z"/>
  <path class="st6" d="M1054,370c1.91-.43,1.49,1.44,2,2.67-.49-.08-1.85-.36-2-.67-.18-.37.15-1.46,0-2Z"/>
  <path class="st6" d="M1051.33,364l.67.67c.08.19-.07.47,0,.67l.67.67c.32.82.43,1.33.67,2-1.72,1.08.37,3.05.67,4,.91,2.94,1.36,7.02,2,9.33-3.47-6.2-4.23-14.3-6.67-20.67l.67-.67c.54,1.3.89,2.88,1.33,4Z"/>
  <path class="st6" d="M416,1065.33c-6.36-1.34-12.37-2.09-18.69-4.35-1.06-.38-2.37.15-1.98-1.65,6.9,1.65,13.9,3.86,20.67,6Z"/>
  <path class="st6" d="M712.67,1054.67c-5.6,3.04-12.48,4.49-18.67,6,.44-1.27,1.61-1.34,2.66-1.68,5.27-1.71,10.7-2.83,16.01-4.32Z"/>
  <path class="st14" d="M1048,355.33l-.67.67c-.04-.1-.98-.56-1.37-1.6-.84-2.19-1.93-4.7-1.96-7.07l3.99,8Z"/>
  <path class="st6" d="M730,1048.67c-4.14,2.51-9.34,4.03-14,5.33-.39-1.8.92-1.28,1.98-1.65,3.97-1.41,8.1-2.47,12.02-3.68Z"/>
  <path class="st6" d="M394,1059.33c-3.27-.78-7.57-1.32-11.19-2.48-1.04-.33-2.15-.52-2.81-1.52.83.21,2.11-.02,3.35.3,3.39.87,7.39,2.38,10.65,3.7Z"/>
  <path class="st14" d="M356,1046.67l-.67.67c-1.87-.87-4.86-1.28-6-3.33,1.63.09,3.57.67,5.07,1.29,1.02.43,1.5,1.33,1.6,1.37Z"/>
  <path class="st6" d="M760,1036.67c-7.73,3.88-16.75,8.46-25.33,10,8.45-3.28,16.66-7.44,25.33-10Z"/>
  <path class="st4" d="M1048,355.33c.95,1.39,1.29,2.96,2,4.67l-.67.67c-.39-1.02-1.39-3.15-2-4.67l.67-.67Z"/>
  <path class="st4" d="M361.33,1048.67l-1.33.67c-1.51-.7-3.12-1.28-4.67-2l.67-.67c1.7.71,3.59,1.37,5.33,2Z"/>
  <path class="st6" d="M763.33,1034.67c.41,1.77-1.31,1.62-2.67,2-.41-1.8,1.33-1.59,2.67-2Z"/>
  <path class="st6" d="M782.67,1026c-1.9,1.45-5.15,3.09-7.33,4,.15-2.54,5.32-3.08,7.33-4Z"/>
  <path class="st6" d="M770,1032c-1.07,1.81-4.03,2.07-6,2.67,1.61-1.62,4.04-2.01,6-2.67Z"/>
  <path class="st6" d="M1057.33,376.67c-1.23-.36-1.44-1.48-1.33-2.67.1.26.81,1.28,1.33,2.67Z"/>
  <path class="st6" d="M1060,384c.44.49.86-1.22,1.33,1.33-1.41.17-1.5.07-1.33-1.33Z"/>
  <path class="st6" d="M1061.33,387.33c.47.53.7-1.24,1.33,1.33-1.42.16-1.49.08-1.33-1.33Z"/>
  <path class="st6" d="M734,1046.67c.16,1.42.08,1.49-1.33,1.33.59-1.01-1.02-.92,1.33-1.33Z"/>
  <path class="st6" d="M714.67,1054l-1.33.67c.1-.03.13-.33,1.33-.67Z"/>
  <path class="st6" d="M774.67,1030c-1.02,1.33-2.54,1.54-4,2,.98-1.43,2.69-1.44,4-2Z"/>
  <path class="st6" d="M784.67,1025.33l-1.33.67c.42-.2.89-.45,1.33-.67Z"/>
  <path class="st6" d="M732,1048l-1.33.67c.07-.02,1.15-.56,1.33-.67Z"/>
  <path class="st6" d="M1059.33,381.33l-.67-.67c.08.17.5.36.67.67Z"/>
  <path class="st6" d="M1058.67,380l-.67-.67c.04.1.51.29.67.67Z"/>
  <path class="st6" d="M1058,378l-.67-.67s.47.17.67.67Z"/>
  <path class="st6" d="M1063.33,390.67l-.67-.67s.5.16.67.67Z"/>
  <path class="st6" d="M1064,392.67l-.67-.67s.48.16.67.67Z"/>
  <path class="st6" d="M1064.67,394.67l-.67-.67c.06.15.55.37.67.67Z"/>
  <path class="st6" d="M1054,369.33l-.67-.67s.55.18.67.67Z"/>
  <path class="st4" d="M1052.67,366l-.67-.67c.07.18.56.39.67.67Z"/>
  <path class="st4" d="M1052,364.67l-.67-.67c.04.1.52.29.67.67Z"/>
  <path class="st12" d="M923.46,545c0,208.77-169.24,378.02-378.02,378.02s-378.02-169.24-378.02-378.02,169.24-378.02,378.02-378.02,378.02,169.24,378.02,378.02ZM673.33,208.67c.4-1.84-.95-1.25-1.99-1.65-56.1-21.42-122.34-27.95-181.72-18.37-1.26.2-2.67-.75-2.29,1.35-.43.05-.9-.06-1.33,0-15.23,1.98-30.17,5.2-45.18,9.82-2.56.79-6.37,1.58-8.16,3.51-.21.06-.46-.06-.67,0-3.89,1.09-7.78,1.92-11.68,3.32-1.15.42-4.62,1.01-4.32,2.68-.2.06-.46-.06-.67,0-2.95.92-5.82,1.34-8.93,2.77-.99.45-2.07.36-1.74,1.89-.2.07-.47-.07-.67,0-.7.25-1.19.62-1.33.67-.2.07-.47-.07-.67,0-2.5.9-5.13,1.74-7.58,2.76-1.05.44-3.45,1-3.09,2.57-.19.08-.48-.08-.67,0-1.1.46-2.02,1.07-2.67,1.33-.19.08-.48-.08-.67,0-2.52,1.06-7.37,1.99-8,4.67-.19.08-.48-.08-.67,0-3.16,1.42-6.75,2.1-9.33,4.67-.18.09-.49-.09-.67,0-.99.49-.6,1.3-.67,1.33-.18.09-.49-.09-.67,0-.9.44-1.25,1.3-1.33,1.33-.19.08-.48-.08-.67,0-1.09.48-3.81-.23-3.33,2-.2.07-.47-.07-.67,0-1.31.45-3.08.16-2.67,2-.21.05-.45-.05-.67,0-2.39.53-.73.43-1.33,1.33-.07.11-.48-.1-.67,0-1.63.85-2.76.84-4,2.67-.19.08-.48-.08-.67,0-1.32.57-3.66.9-3.33,2.67-.43.25-.9.42-1.33.67-.29.16-.47.55-.67.67-.38.22-.84.37-1.33.67-3.92,2.4-8.19,4.69-11.33,8-.18.09-.48-.08-.67,0-1.14.49-2.37.51-2,2-.69.4-1.32.91-2,1.33-1.93,1.21-1.15,1.17-1.33,1.33-.13.11-.52-.11-.67,0-.87.65-2.44.28-2,2-.69.4-1.32.91-2,1.33-1.82,1.15-1.23,1.26-1.33,1.33-.38.27-.96.39-1.33.67-1.02.76-1.56,1.05-2.67,2-.36.31-.72.82-1.33,1.33-.91.77-1.2,1.22-1.33,1.33-.24.21-.44.46-.67.67-.54.48-.96,1.01-1.33,1.33-.13.11-.54-.11-.67,0-.56.49-.95,1-1.33,1.33-.82.72-1.41,1.47-2,2-.08.07-.73.13-1.33.67-.23.21-.44.45-.67.67-1.47-.28-1.56.85-2,2-.12.11-.54-.11-.67,0-.24.21-.44.46-.67.67-1.46,1.34-3.12,3.21-4.67,4.67-.47.44-.89.91-1.33,1.33-4.84,4.58-9.42,9.17-14,14-.22.23-.45.44-.67.67-1.61,1.71-3.09,3.61-4.67,5.33-.21.23-.45.43-.67.67s-.45.43-.67.67-.69.62-1.33,1.33c-.21.23-.46.43-.67.67s-.46.43-.67.67c-.72.81-1.28,1.85-2,2.67-.2.23-.46.43-.67.67-.11.13.11.54,0,.67-.2.23-.46.43-.67.67s-.46.43-.67.67c-.89,1.01-1.86,1.5-3.33,3.33-.11.14.11.53,0,.67-.08.1-.48.28-1.33,1.33-.19.24-.47.42-.67.67-.17.21-.46.4-.67.67-.11.14.11.53,0,.67-.1.13-.97.68-2,2-.69.89-1.33,1.77-2,2.67-.16.21-.47.39-.67.67-.27.38-.39.96-.67,1.33-.25.34-.42-1.03-1.33,1.33-.18.46-.46.89-.67,1.33-1.63-.39-1.4.98-2,2-.1.17.1.51,0,.67-.14.21-.49.4-.67.67-5,7.36-10.26,14.45-14.94,22.06-63.01,102.24-71.63,230.79-20.96,340.18l5.9,11.09c-9.61-30-17.2-60.81-19.99-92.33-21.25-239.85,177.18-430.17,414.66-410.33.14.01,1.41.56,2.67.67,1.1.1,2.24-.11,3.33,0,.45.04,2.02.53,3.33.67.44.05.9-.05,1.33,0l22.67,4c.64.07,1.39-.1,2,0,.07.01.23.48,1.33.67.62.11,1.38-.11,2,0,.07.01.23.48,1.33.67.62.11,1.38-.11,2,0,.1.02.94.48,2,.67.22.04.45-.04.67,0,4.02,1.65,8.45,2.36,12.67,3.33.4.09.93-.09,1.33,0,.21.05.46-.05.67,0,.42.09.91.57,1.33.67.73.17.63,0,.67,0,.76.17,1.43.53,2,.67.07.02.35.44,1.33.67.21.05.46-.05.67,0,4.05,1.79,8.45,2.72,12.67,4,.2.06.46-.06.67,0,.05.01.19.52.67.67.37.11.97-.11,1.33,0,.93.28,1.93.96,3.33,1.33.56.15.76.54,2,.67.21.02.46.02.67,0,.63,1.04,6.39,2.89,6.66,2.66,1.54-1.28-4.86-3.1-5.33-3.33-5.28-2.64-8.9-4.62-14.67-6.67-.2-.07-.47.07-.67,0-1.7-1.28-3.97-2.69-6-3.33-.2-.06-.47.07-.67,0-3-2.44-7.29-2.96-10.67-4-.2-.06-.46.06-.67,0ZM565.86,220.2c-239.27,9.45-403.22,247.56-326.54,475.48,15.59,46.35,47.11,104.39,86.08,134.58,125.65,97.35,301.97,99.95,430.81,6.95,159.88-115.4,197.62-339.17,83-500.76-14.14-19.93-25.27-31.86-45-46.33-65.9-48.37-146.17-73.17-228.35-69.93Z"/>
  <path class="st12" d="M543.16,46.16c3.82-.71,6.79.04,9.41,2.94l46.22,79.78c3.54,6.59-.65,13.14-7.76,13.81-28.71,2.7-61.57-2.09-90.72,0-7.65-.24-12.2-7.92-7.76-14.48l44.9-77.77c1.53-2.02,3.1-3.8,5.71-4.28ZM576,125.33l-30.99-52.66-29.67,52.66h60.67Z"/>
  <path class="st12" d="M543.16,940.83c4.19-.77,6.44.18,9.54,2.81,12.62,14.44,28.71,27.11,41.32,41.34,3.81,4.3,5.9,8.25,2.34,13.71l-45.01,44.99c-3.52,3.28-8.41,2.96-12.03,0l-44.65-44.68c-2.65-3.78-2.87-8.18.32-11.69l44.99-45.01c.89-.82,2.01-1.26,3.18-1.48ZM545.34,961.6l-31.74,31.74,32.07,32.07,31.74-31.74-32.07-32.07Z"/>
  <path class="st5" d="M565.86,220.2c82.18-3.25,162.45,21.56,228.35,69.93,19.73,14.48,30.86,26.41,45,46.33,114.63,161.59,76.88,385.36-83,500.76-128.84,93-305.16,90.41-430.81-6.95-38.97-30.19-70.49-88.23-86.08-134.58-76.68-227.92,87.27-466.03,326.54-475.48ZM499.31,250.02c-.59-.52-12.31,2.6-12.59,3.7l17.14,60.75c6.53,10.29,16.57,6.68,26.11,3.49l-3.27-11.69c-1.41-1.06-9.01,2.72-11.32,2.37l-16.07-58.62ZM596.67,259.33h-14.67l-21,39.99-22.67-39.32h-14.33l30.63,54.37c2.03,2.07,8.74.43,11.73,1.01l30.31-56.05ZM645.33,334c.22,1.82,2.36,2.79,3.79,3.88,1.14.86,5.74,4.56,6.88,3.83l24.43-34.31,26.17,17.21,6.43-9.95-26.15-18.55c-4.98-2.71-12.17-1.75-16.2,2.22l-24.67,34.99c.93-4.12,2.5-7.87,3.34-12l-39.34-13-1.72-1c-.67-1.08,2.15-6.49,2.77-8.03l41.61,14.02c1.57-10.34,13.11-25.14,2.83-34.01-3.4-2.94-28.04-11.1-33.48-12.33-7.14-1.61-13.16.8-16.33,7.68-2.55,5.52-8.97,23.58-10.04,29.29-1.28,6.84,1.72,12.59,7.9,15.5,12.74,5.99,28.79,8.66,41.8,14.54ZM469.16,279.49c-3.38.58-26.58,13.58-30.43,16.23-5.9,4.07-7.84,10.31-5.22,17.1,2.17,5.63,11.4,21.98,15.01,26.99,3.29,4.56,7.92,6.95,13.66,6.02,3.53-.57,26.49-13.49,30.44-16.23,6.55-4.54,8.17-9.64,5.29-17.18-1.85-4.84-12.85-25.13-16-28.66-3.33-3.74-7.76-5.13-12.74-4.27ZM409.32,325.33c.35-2.64,8.6-8.26,7.04-10.68-.17-.26-4.33-3.63-4.79-3.89-6.44-3.74-12.94-1.68-17.91,3.23-7.63,7.54-19.8,21.74-26.31,30.36-3.75,4.97-5.66,9.27-3.02,15.65,1.4,3.37,15.91,16.09,19.38,16.62,8.9,1.37,11.47-1.78,16.97-7.61,8.29-8.78,15.82-19.07,23.97-28.05.74-.53,1.24-.3,1.98.03.59.26,8.48,6.93,9.08,7.64.41.48.97.83.85,1.59-7.94,9.2-15.49,19.26-23.88,28.13-.59.63-4.05,4.29-4.35,4.29s-3.32-3.46-4.33-3.02c-.54.24-7.85,8.21-7.95,8.8,6.9,8.56,15.57,9.61,23.63,1.59,7.31-7.27,20.68-22.46,26.6-30.73,3.24-4.53,4.67-8.42,2.72-13.94-1.53-4.32-15.33-16.43-19.78-17.55-8-2-11.95,2.29-16.89,7.53-8.5,9.02-16.03,19.73-24.75,28.57-1.24.23-10.85-8.17-10.89-9.54-.01-.53.24-1.04.48-1.5,3.67-3.35,25.7-31.17,27.75-30.81.76.13,2.88,3.24,4.41,3.29ZM553.86,326.86c-122.26,8.54-178.89,156.91-96.87,248.48,20.36,22.73,34.26,36.46,41.23,68.11,4.03,18.29,1.35,33.37,3.3,50.7,2.56,22.7,21.05,31.04,41.45,31.88,15.53.64,35.29.88,50.73,0,19.72-1.13,35.89-13.05,37.63-33.7,1.79-21.31-1.27-35.52,5.17-57.5,12.1-41.31,41.44-54.51,60.29-89.04,56.91-104.23-25.57-227.12-142.92-218.92ZM691.32,347.33c-6.71,3.17-8.74,11.55-5.66,18.01,1.45,3.05,18.11,23.6,21.02,26.32,4.69,4.39,11.65,5.03,17.15,1.83,8.67-5.04,15.88-13.82,9.4-23.72l-19.16-23.57c-.5-1.87,5.19-6.56,7.27-5.21l17.69,21.69c1.14,1.35-1.12,2.58-.96,3.56.09.56,6.76,8.54,7.27,8.8,1.64.83,5.23-3.96,5.86-5.51,1.77-4.37,1.62-8.25-.65-12.41-1.72-3.14-20.14-25.74-22.59-27.41-5.95-4.05-11.34-2.59-16.84,1.07-9.13,6.07-13.7,13.32-7,23.44,5.17,7.8,13.22,14.97,18.47,22.9.2,1.3-5.64,6.33-7.16,5.45-1.7-3.98-18.21-21.17-18.06-23.59.05-.87,1.25-1.54.99-2.31-.84-2.54-6.39-6.23-7.03-9.34ZM527.16,738.16c-11.86,1.99-11.7,18.9,1.93,20.42,21.37,2.38,46.73-1.56,68.52.03,9.7-1.38,11.79-15.54,3.29-19.17-6.37-2.72-19.29.89-26.53-1.47-14.37,1.6-33.4-2.12-47.2.19ZM534.49,765.49c-11.36,1.9-10.69,17.99-.67,19.68,4.7.79,10.92-.06,15.87.13,11.25.43,27.69,2.12,38.58.64,11.55-1.57,11.59-17.91,1.24-19.79-5.92-1.08-15.42.05-21.87-.13-9.77-.26-23.66-2.12-33.15-.54ZM579.33,792h-16.67v16.67h16.67v-16.67ZM607.33,816v-23c0-.07-.93-1-1-1h-15.67v96.67h59c6.65,0,13.88-9.21,14.36-15.64,1.06-14.09-.71-29.63-.19-43.87-.73-5.36-8.93-13.16-14.17-13.16h-42.33ZM482.67,798.67h-16.67v90h90v-16.67h-73.33v-73.33ZM562.67,816v72.67h16.67v-72.67h-16.67Z"/>
  <path class="st5" d="M645.33,334l.67-.67c-.1.45-.04.73-.67.67Z"/>
  <path class="st1" d="M673.33,208.67c.2.06.46-.06.67,0,2.82,2.77,7.44,2.93,10.67,4,.2.07.46-.06.67,0-.33,1.63,4.26,2.72,6,3.33.2.07.47-.07.67,0,1.29,2.63,4.38.56,4.67,3.33,1.09.24,2.26.3,3.33.68l-.67,1.32c-.37-.11-.97.11-1.33,0l-.67-.67c-.2-.06-.46.06-.67,0-.03-.44.04-.9,0-1.33-4.17-.93-8.53-1.69-12.67-2.67-.21-.05-.46.05-.67,0l-1.33-.67c-.57-.13-1.24-.49-2-.67h-.67c-.43-.1-.91-.57-1.33-.67l-.33-.66-.34.66c-.4-.09-.94.09-1.33,0,.4-1.93-.96-1.21-2.11-1.52-3.82-1.01-6.86-1.18-10.55-1.81-.22-.04-.45.04-.67,0l-2-.67c-.62-.11-1.38.11-2,0l-1.33-.67c-.62-.11-1.38.11-2,0,.24-1.52-.27-1.88-1.33-.67-.61-.1-1.36.07-2,0,.39-2.02-.99-1.17-2.21-1.42-6.96-1.46-13.75-1.87-20.46-2.58-.44-.05-.9.05-1.33,0-.57-1.08-2.27-.63-3.33-.67-1.09-.11-2.24.1-3.33,0l-2.67-.67c-237.48-19.84-435.91,170.48-414.66,410.33,2.79,31.52,10.38,62.34,19.99,92.33l-5.9-11.09c-50.67-109.39-42.05-237.95,20.96-340.18,4.69-7.61,9.95-14.69,14.94-22.06l.67-.67c.1-.16-.1-.5,0-.67,2.17-.4,1.55-1.03,2-2,.21-.45.49-.88.67-1.33,1.28.23,1.55-.06,1.33-1.33.28-.38.39-.95.67-1.33l.67-.67c.67-.89,1.31-1.78,2-2.67,1.37.05,2.04-.67,2-2,.11-.14-.11-.53,0-.67l.67-.67c.2-.25.47-.43.67-.67,1.42.16,1.49.08,1.33-1.33.11-.14-.11-.53,0-.67,1.73-.54,2.8-1.62,3.33-3.33.21-.24.46-.43.67-.67l.67-.67c.11-.13-.11-.54,0-.67l.67-.67c.72-.82,1.28-1.86,2-2.67l.67-.67c.21-.24.46-.43.67-.67,1.42.16,1.49.08,1.33-1.33.21-.23.46-.44.67-.67l.67-.67c1.58-1.73,3.06-3.63,4.67-5.33l.67-.67c4.58-4.83,9.16-9.42,14-14l1.33-1.33c1.55-1.45,3.2-3.33,4.67-4.67l.67-.67c.12-.11.54.11.67,0,.98-.88,1.64-1.67,2-2,.23-.21.44-.46.67-.67l1.33-.67c.59-.53,1.18-1.28,2-2l1.33-1.33c.13-.11.54.11.67,0l1.33-1.33c.23-.21.43-.46.67-.67,1.42.16,1.49.08,1.33-1.33.61-.52.97-1.02,1.33-1.33,1.93.4,2.15-.36,2.67-2,.38-.28.95-.39,1.33-.67,1.27.22,1.56-.05,1.33-1.33.68-.43,1.31-.94,2-1.33s1.7.2,2-2c.14-.11.54.11.67,0,1.42.16,1.49.08,1.33-1.33.68-.42,1.31-.94,2-1.33s1.7.2,2-2c.19-.08.49.09.67,0,4.04-1.95,8.2-4.91,11.33-8,.49-.3.96-.45,1.33-.67l.67-.67c.43-.24.91-.42,1.33-.67,1.13-.66,3.69-1.28,3.33-2.67.19-.08.48.08.67,0,1.5-.65,3.24-.63,4-2.67.18-.1.59.11.67,0,1.42.16,1.49.08,1.33-1.33.21-.05.46.05.67,0,1.36-.34,3.07-.27,2.67-2,.2-.07.47.07.67,0,1.29-.45,2.72-.41,3.33-2,.18-.08.47.08.67,0l1.33-1.33c.18-.09.49.09.67,0l.67-1.33c.18-.09.49.09.67,0,3-1.45,6.77-2.03,9.33-4.67.19-.08.48.08.67,0,2.52-1.12,5.96-2.81,8-4.67.19-.08.48.08.67,0l2.67-1.33c.19-.08.48.08.67,0,3.48-1.42,7.67-3.06,10.67-5.33.2-.07.47.07.67,0l1.33-.67c.2-.07.47.07.67,0,3.55-1.26,7.6-2.45,10.67-4.67.2-.06.46.06.67,0,5.29-1.67,11.06-3.5,16-6,.21-.06.46.06.67,0,17.69-4.96,35.18-10.08,53.33-13.33.43-.06.9.05,1.33,0,73.31-9.21,116.65-3.02,186,18.67Z"/>
  <path class="st6" d="M487.33,190c-.38-2.09,1.03-1.14,2.29-1.35,59.39-9.59,125.63-3.05,181.72,18.37,1.03.39,2.38-.2,1.99,1.65-69.35-21.68-112.69-27.88-186-18.67Z"/>
  <path class="st6" d="M486,190c-18.15,3.26-35.64,8.38-53.33,13.33,1.79-1.93,5.6-2.72,8.16-3.51,15.01-4.62,29.95-7.84,45.18-9.82Z"/>
  <path class="st4" d="M629.33,205.33c6.7.71,13.5,1.12,20.46,2.58,1.22.26,2.6-.6,2.21,1.42l-22.67-4Z"/>
  <path class="st6" d="M432,203.33c-4.94,2.5-10.71,4.33-16,6-.3-1.67,3.17-2.26,4.32-2.68,3.89-1.4,7.79-2.23,11.68-3.32Z"/>
  <path class="st6" d="M692,216c5.77,2.05,9.38,4.03,14.67,6.67-.21.65-.76.61-1.33.67-.21.02-.46.02-.67,0l-2-.67c-1.4-.38-2.41-1.05-3.33-1.33l.67-1.32c-1.08-.37-2.24-.43-3.33-.68-.28-2.77-3.38-.7-4.67-3.33Z"/>
  <path class="st6" d="M415.33,209.33c-3.07,2.22-7.12,3.41-10.67,4.67-.33-1.54.75-1.44,1.74-1.89,3.1-1.43,5.98-1.85,8.93-2.77Z"/>
  <path class="st4" d="M696.67,219.33c.04.44-.03.89,0,1.33-4.22-1.28-8.62-2.21-12.67-4,4.14.97,8.49,1.73,12.67,2.67Z"/>
  <path class="st4" d="M663.33,211.33c3.69.63,6.73.81,10.55,1.81,1.16.31,2.51-.42,2.11,1.52-4.22-.98-8.65-1.69-12.67-3.33Z"/>
  <path class="st6" d="M684.67,212.67c-3.23-1.07-7.85-1.23-10.67-4,3.38,1.04,7.66,1.56,10.67,4Z"/>
  <path class="st3" d="M706.67,222.67c.47.23,6.87,2.06,5.33,3.33-.28.23-6.04-1.62-6.66-2.66.57-.06,1.12-.02,1.33-.67Z"/>
  <path class="st6" d="M402,214.67c-2.99,2.28-7.19,3.91-10.67,5.33-.35-1.58,2.04-2.13,3.09-2.57,2.45-1.02,5.08-1.86,7.58-2.76Z"/>
  <path class="st6" d="M379.33,226c.63-2.68,5.48-3.61,8-4.67-2.04,1.86-5.48,3.55-8,4.67Z"/>
  <path class="st6" d="M378.67,226c-2.56,2.63-6.33,3.22-9.33,4.67,2.58-2.57,6.18-3.25,9.33-4.67Z"/>
  <path class="st6" d="M365.33,233.33c-.61,1.59-2.05,1.55-3.33,2-.47-2.23,2.24-1.52,3.33-2Z"/>
  <path class="st6" d="M361.33,235.33c.41,1.73-1.3,1.66-2.67,2-.41-1.84,1.36-1.55,2.67-2Z"/>
  <path class="st6" d="M266.67,316.67c1.47-1.83,2.44-2.33,3.33-3.33-.54,1.72-1.61,2.8-3.33,3.33Z"/>
  <path class="st6" d="M264,320.67c.04,1.33-.63,2.05-2,2,1.03-1.32,1.9-1.87,2-2Z"/>
  <path class="st6" d="M352,241.33c1.24-1.83,2.37-1.82,4-2.67-.76,2.04-2.5,2.01-4,2.67Z"/>
  <path class="st6" d="M351.33,241.33c.36,1.38-2.2,2.01-3.33,2.67-.33-1.77,2.01-2.1,3.33-2.67Z"/>
  <path class="st6" d="M344.67,246c-3.13,3.09-7.3,6.05-11.33,8,3.14-3.31,7.41-5.6,11.33-8Z"/>
  <path class="st4" d="M628,205.33c-1.31-.14-2.88-.62-3.33-.67,1.07.04,2.76-.41,3.33.67Z"/>
  <path class="st6" d="M691.33,216c-1.74-.61-6.33-1.7-6-3.33,2.03.64,4.3,2.05,6,3.33Z"/>
  <path class="st6" d="M320,264c-.52,1.64-.73,2.4-2.67,2,1.1-.95,1.65-1.24,2.67-2Z"/>
  <path class="st4" d="M621.33,204.67c-1.26-.11-2.53-.66-2.67-.67l2.67.67Z"/>
  <path class="st6" d="M266.67,317.33c.16,1.42.08,1.49-1.33,1.33.85-1.05,1.26-1.24,1.33-1.33Z"/>
  <path class="st6" d="M358,237.33c.16,1.42.08,1.49-1.33,1.33.6-.9-1.05-.81,1.33-1.33Z"/>
  <path class="st6" d="M316,267.33c.16,1.42.08,1.49-1.33,1.33.13-.11.42-.56,1.33-1.33Z"/>
  <path class="st6" d="M258.67,327.33c.22,1.27-.06,1.56-1.33,1.33.91-2.37,1.08-.99,1.33-1.33Z"/>
  <path class="st6" d="M322.67,262c.23,1.28-.06,1.55-1.33,1.33.1-.07-.49-.18,1.33-1.33Z"/>
  <path class="st6" d="M276.67,305.33c.16,1.42.08,1.49-1.33,1.33.64-.72,1.13-1.11,1.33-1.33Z"/>
  <path class="st4" d="M654,209.33c1.06-1.21,1.57-.85,1.33.67-1.11-.19-1.26-.65-1.33-.67Z"/>
  <path class="st6" d="M326.67,258.67c-.3,2.2-1.3,1.6-2,2-.44-1.72,1.13-1.35,2-2Z"/>
  <path class="st6" d="M306.67,275.33c-.36.33-1.02,1.12-2,2,.44-1.15.53-2.28,2-2Z"/>
  <path class="st6" d="M328.67,257.33c.16,1.42.08,1.49-1.33,1.33.18-.16-.59-.12,1.33-1.33Z"/>
  <path class="st6" d="M332.67,254c-.3,2.2-1.3,1.6-2,2-.37-1.49.86-1.51,2-2Z"/>
  <path class="st6" d="M256.67,330c-.45.97.17,1.6-2,2,.6-1.02.37-2.39,2-2Z"/>
  <path class="st3" d="M704.67,223.33c-1.24-.12-1.44-.52-2-.67l2,.67Z"/>
  <path class="st4" d="M662.67,211.33c-1.06-.18-1.9-.65-2-.67l2,.67Z"/>
  <path class="st6" d="M308.67,274l-1.33.67c.6-.54,1.25-.6,1.33-.67Z"/>
  <path class="st4" d="M683.33,216.67c-.98-.23-1.26-.65-1.33-.67l1.33.67Z"/>
  <path class="st6" d="M390.67,220l-2.67,1.33c.65-.27,1.57-.88,2.67-1.33Z"/>
  <path class="st4" d="M658.67,210.67c-1.1-.19-1.26-.65-1.33-.67l1.33.67Z"/>
  <path class="st6" d="M368,232c.07-.03-.32-.84.67-1.33l-.67,1.33Z"/>
  <path class="st6" d="M404,214l-1.33.67c.14-.05.64-.42,1.33-.67Z"/>
  <path class="st4" d="M678,214.67c-.21-.05-.46.05-.67,0l.34-.66.33.66Z"/>
  <path class="st6" d="M366,233.33c.09-.03.43-.89,1.33-1.33l-1.33,1.33Z"/>
  <path class="st6" d="M312.67,270.67c.37-.32.8-.86,1.33-1.33l-1.33,1.33Z"/>
  <path class="st6" d="M264,320c.21-.27.5-.45.67-.67l-.67.67Z"/>
  <path class="st6" d="M310.67,272c.38-.33.77-.84,1.33-1.33l-1.33,1.33Z"/>
  <path class="st6" d="M254,333.33c.18-.27.53-.45.67-.67l-.67.67Z"/>
  <path class="st6" d="M259.33,326c.2-.27.5-.45.67-.67l-.67.67Z"/>
  <path class="st6" d="M303.33,278c.23-.21.43-.45.67-.67l-.67.67Z"/>
  <path class="st4" d="M679.33,215.33h.67s.07.17-.67,0Z"/>
  <path class="st6" d="M698,221.33c-.48-.14-.62-.65-.67-.67l.67.67Z"/>
  <path class="st6" d="M297.33,284c.45-.42.86-.89,1.33-1.33l-1.33,1.33Z"/>
  <path class="st6" d="M282.67,298.67c.22-.23.45-.44.67-.67l-.67.67Z"/>
  <path class="st6" d="M277.33,304.67c.21-.23.46-.44.67-.67l-.67.67Z"/>
  <path class="st6" d="M346,245.33c.2-.12.38-.5.67-.67l-.67.67Z"/>
  <path class="st6" d="M274,308c.21-.24.46-.43.67-.67l-.67.67Z"/>
  <path class="st6" d="M271.33,311.33c.21-.24.46-.43.67-.67l-.67.67Z"/>
  <path class="st6" d="M270.67,312.67c.21-.24.46-.43.67-.67l-.67.67Z"/>
  <polygon class="st3" points="576 125.33 515.33 125.33 545.01 72.67 576 125.33"/>
  <rect class="st3" x="523.06" y="970.83" width="44.88" height="45.35" transform="translate(-542.74 676.72) rotate(-45)"/>
  <path class="st9" d="M524,638h-.67c-.09-.64.09-1.36,0-2,.92.43.47,1.49.67,2Z"/>
  <path class="st9" d="M553.86,326.86c117.35-8.2,199.82,114.68,142.92,218.92-18.85,34.53-48.19,47.73-60.29,89.04-6.44,21.98-3.38,36.19-5.17,57.5-1.73,20.66-17.91,32.57-37.63,33.7-15.43.88-35.19.64-50.73,0-20.4-.84-38.89-9.18-41.45-31.88-1.95-17.33.73-32.41-3.3-50.7-6.97-31.65-20.87-45.38-41.23-68.11-82.02-91.57-25.39-239.94,96.87-248.48ZM514.67,609.33l-1.33,6.66,4-.66c.05.21-.04.45,0,.67.28,1.54-.86,3.09,1.33,2.67.14.37.49.74.67,1.33-.48.38-.87.67-1.06,1.3-.77,2.52,4.82,13.03,3.73,16.71h1.33c.24,1.73.4,5.41,2,4.66,0,.44,0,.89,0,1.33,0,.09-.75.76-.73,1.64.08,2.62.55,5.84.72,8.71.12,1.98,1.13.84,2,.32.07.65-.06,1.34,0,2-2.01-.37-1.29,1.02-1.33,2.3-.08,2.32-.18,5.13,0,7.4.16,2.05-.33,1.72,2,1.63.02.89-.01,1.78,0,2.67-2.01-1.11-1.52,5.09-1.33,5.34.08.11.96-.06,1.33,0,.02,1.11-.04,2.23,0,3.33-1.92-.39-1.41,1.08-1.36,2.33.12,3.51,2.02,6.35,2.04,6.72.13,2.57-2.36,8.57-.66,10.6,2.35,2.82,3.39.58,4.84.52.69-.03,1.78.51,2.78.53,11.79.16,23.59-.18,35.38-.04,1.84-.09,1.47,2.46,2.28,3.05,2.08,1.52,3.64-1.47,5.34-2.07,3.04-1.07,9.73-1.24,13-.94.95.09,1.74,1.27,2.58,1.19s1.72-1.24,2.8-1.22c1.4.02,1.72,2.03,3.91,1.99,3.54-.07,1.93-2.15,2.54-4.18,1.25-4.19,1.46-1.23,1.2-7.14-.4-9.41-.42-20.6,0-30,1.75.17,3.91-4.64,4.01-5.74.17-1.95-1.25-3.01-1.4-5.23-.35-5.15,4.56-8.42,1.39-13.03,4.25-17.96,9.62-32.29,19.72-47.94,12.17-18.86,29.57-31.33,41.22-50.11,42.65-68.73,6.63-159.81-70.94-180.94-114.55-31.21-201.76,103.7-125.32,195.32,16.87,20.22,30.5,30.47,41.32,56.35ZM605.99,666v-3.99h-.65v3.99h.65ZM605.33,669.34v7.33s.67,0,.67,0v-7.33s-.67,0-.67,0ZM605.33,678.67v5.33s.67,0,.67,0v-5.33s-.67,0-.67,0ZM605.99,686.66c.48-.94-.42-1.78-.65-1.33-.48.94.42,1.78.65,1.33Z"/>
  <path class="st2" d="M607.33,816h42.33c5.25,0,13.44,7.79,14.17,13.16-.53,14.24,1.24,29.78.19,43.87-.48,6.43-7.71,15.64-14.36,15.64h-59v-96.67h15.67c.07,0,1,.93,1,1v23ZM648,832.67h-41.37v39.33h41.37v-39.33Z"/>
  <path class="st2" d="M409.32,325.33c-1.53-.05-3.65-3.16-4.41-3.29-2.05-.36-24.08,27.46-27.75,30.81-.24.46-.5.97-.48,1.5.04,1.38,9.65,9.78,10.89,9.54,8.73-8.84,16.25-19.55,24.75-28.57,4.94-5.24,8.88-9.54,16.89-7.53,4.46,1.12,18.26,13.23,19.78,17.55,1.95,5.52.52,9.41-2.72,13.94-5.92,8.27-19.3,23.46-26.6,30.73-8.06,8.02-16.73,6.97-23.63-1.59.11-.58,7.41-8.56,7.95-8.8,1.01-.45,4.04,3.02,4.33,3.02.31,0,3.76-3.66,4.35-4.29,8.4-8.87,15.95-18.94,23.88-28.13.12-.76-.44-1.1-.85-1.59-.6-.71-8.48-7.37-9.08-7.64-.74-.33-1.24-.56-1.98-.03-8.15,8.99-15.69,19.28-23.97,28.05-5.5,5.83-8.07,8.98-16.97,7.61-3.47-.53-17.98-13.25-19.38-16.62-2.64-6.38-.73-10.68,3.02-15.65,6.51-8.62,18.67-22.82,26.31-30.36,4.97-4.91,11.47-6.97,17.91-3.23.46.27,4.62,3.63,4.79,3.89,1.56,2.42-6.69,8.03-7.04,10.68Z"/>
  <polygon class="st2" points="482.67 798.67 482.67 872 556 872 556 888.67 466 888.67 466 798.67 482.67 798.67"/>
  <path class="st2" d="M645.33,334c-13.01-5.88-29.06-8.55-41.8-14.54-6.18-2.91-9.18-8.66-7.9-15.5,1.07-5.7,7.49-23.77,10.04-29.29,3.17-6.88,9.19-9.29,16.33-7.68,5.44,1.23,30.08,9.39,33.48,12.33,10.29,8.87-1.25,23.68-2.83,34.01l-41.61-14.02c-.62,1.54-3.44,6.95-2.77,8.03l1.72,1,39.34,13c-.83,4.12-2.41,7.88-3.34,12l-.67.67ZM617.63,278.72l-3.41,10.14,29.87,10.05,3.41-10.14-29.87-10.05Z"/>
  <path class="st2" d="M646,333.33l24.67-34.99c4.03-3.97,11.23-4.93,16.2-2.22l26.15,18.55-6.43,9.95-26.17-17.21-24.43,34.31c-1.14.72-5.74-2.98-6.88-3.83-1.43-1.08-3.57-2.06-3.79-3.88.63.07.57-.22.67-.67Z"/>
  <path class="st2" d="M691.32,347.33c.65,3.11,6.19,6.8,7.03,9.34.26.77-.94,1.44-.99,2.31-.15,2.42,16.36,19.6,18.06,23.59,1.51.88,7.36-4.15,7.16-5.45-5.24-7.94-13.3-15.1-18.47-22.9-6.7-10.12-2.13-17.37,7-23.44,5.5-3.66,10.9-5.11,16.84-1.07,2.45,1.67,20.88,24.26,22.59,27.41,2.27,4.16,2.42,8.04.65,12.41-.63,1.55-4.22,6.34-5.86,5.51-.51-.26-7.18-8.24-7.27-8.8-.15-.98,2.1-2.21.96-3.56l-17.69-21.69c-2.08-1.35-7.77,3.34-7.27,5.21l19.16,23.57c6.48,9.9-.73,18.67-9.4,23.72-5.5,3.2-12.46,2.56-17.15-1.83-2.9-2.72-19.56-23.27-21.02-26.32-3.08-6.46-1.05-14.84,5.66-18.01Z"/>
  <path class="st2" d="M469.16,279.49c4.98-.86,9.41.53,12.74,4.27,3.15,3.54,14.16,23.82,16,28.66,2.88,7.55,1.26,12.64-5.29,17.18-3.95,2.74-26.91,15.66-30.44,16.23-5.74.93-10.37-1.46-13.66-6.02-3.61-5.01-12.84-21.37-15.01-26.99-2.62-6.79-.68-13.03,5.22-17.1,3.85-2.65,27.05-15.65,30.43-16.23ZM472.19,291.54l-27.67,15.34,14.91,26.9,27.67-15.34-14.91-26.9Z"/>
  <path class="st9" d="M527.16,738.16c13.8-2.31,32.83,1.42,47.2-.19,7.25,2.35,20.16-1.25,26.53,1.47,8.51,3.63,6.42,17.79-3.29,19.17-21.79-1.58-47.15,2.36-68.52-.03-13.62-1.52-13.79-18.44-1.93-20.42Z"/>
  <path class="st2" d="M596.67,259.33l-30.31,56.05c-2.99-.58-9.7,1.06-11.73-1.01l-30.63-54.37h14.33l22.67,39.32,21-39.99h14.67Z"/>
  <path class="st9" d="M534.49,765.49c9.48-1.59,23.38.27,33.15.54,6.45.17,15.95-.95,21.87.13,10.35,1.88,10.31,18.21-1.24,19.79-10.89,1.48-27.33-.2-38.58-.64-4.95-.19-11.17.66-15.87-.13-10.03-1.69-10.69-17.78.67-19.68Z"/>
  <rect class="st2" x="562.67" y="816" width="16.67" height="72.67"/>
  <path class="st2" d="M499.31,250.02l16.07,58.62c2.31.35,9.91-3.43,11.32-2.37l3.27,11.69c-9.54,3.19-19.58,6.8-26.11-3.49l-17.14-60.75c.27-1.1,12-4.22,12.59-3.7Z"/>
  <rect class="st12" x="562.67" y="792" width="16.67" height="16.67"/>
  <path class="st14" d="M522.67,478.67c3.39-.84,8.45-.52,12-.67.66-.66-2.34-4.89,1.35-7.65,2.36-1.76,15.44-5.02,15.9-5.76,1.52-2.43-2.37-1.63-2.97-3.87-1.95-7.26,10.73-3.43,13.09-5.02.72-.49.91-2.89,1.94-4.05.97-1.08,3.2-1.41,3.37-2.11.74-2.97.07-15.02,1.66-15.53.81-.26,2.32.43,2.32.99v14.67c0,.32,1.86,1.13,2.28,1.72.62.85,1.62,3.85,2.16,3.98,2.08.5,15.41-1.45,14.14,3.51-.4,1.58-5.74,3.84-4.59,5.13,3.61.18,17.02,4.63,17.37,8.37.16,1.7-1.51,2.1-1.37,3.63,3.98-.05,8.08-.04,12,.67,4.52.81,4.27,3.11.67,5.33-2.7,1.67-12.97,4.9-13.35,7.7-.67,4.9,5.37,5.31,2.32,11.6-1.8,3.7-10.13,2.89-10.88,5.12-.69,9.53-1.37,19.05-2.09,28.57-.22,2.93-1.23,6.85-1.33,9.67-.06,1.71-.11,3.65,0,5.33-1.07.56-.64,2.26-.67,3.33-.04,1.73-.12,3.62,0,5.33-1,.46-.64,1.79-.67,2.67-.04,1.54-.06,3.13,0,4.67.03.66-.05,1.34,0,2-1.07.56-.64,2.26-.67,3.33-.03,1.33.07,2.67,0,4-.14,2.8-.37,2.76,0,6,.07.65-.08,1.36,0,2,.09.71-.25,1.67.67,2-.07.87.01,1.79,0,2.67s-.31,2.21.67,2.67c-.05.43-.08,2.56,0,2.67l.67,1.33c-.05.66.03,1.34,0,2-.05.86-.28,2.23.67,2.67-.05.56-.1,3.2,0,3.33l.67,1.33c-.2,1.72.4,1.79.67,2.67v2c.15,1.04.65,1.85.67,2,.31,2.43.53,4.88.67,7.33.05.87-.36,2.2.67,2.67-.03.44.04.89,0,1.33-.09,1.02-.32,2.82.67,3.33-.08.83-.02,1.81,0,2.67.02.73-.2,1.68.67,2-.14,2.29.8,4.51,1.33,6.67l.67,6c.02.67-.03,1.34,0,2,.46,11.4,4.01,30.49,6.17,42.16.15.81.74,5.79,2.5,3.84.25,5.91.04,2.95-1.2,7.14-.6,2.03,1,4.11-2.54,4.18-2.19.05-2.51-1.97-3.91-1.99-1.08-.01-1.98,1.14-2.8,1.22s-1.63-1.1-2.58-1.19c-3.27-.3-9.96-.13-13,.94-1.7.6-3.26,3.59-5.34,2.07-.81-.59-.44-3.15-2.28-3.05-11.79-.13-23.59.21-35.38.04-1.01-.01-2.1-.56-2.78-.53-1.45.07-2.49,2.3-4.84-.52-1.69-2.03.79-8.03.66-10.6-.02-.37-1.92-3.21-2.04-6.72-.04-1.25-.56-2.73,1.36-2.33.05,1.37-.78,3.88,1.33,3.33,1.29-7.6,3.03-15.11,4.39-22.7.15-.86-.4-1.23-.39-1.3.47-2.72,1.33-5.34,2-8,.07-.26.65-.53.67-2,0-.43.06-.92,0-1.33.84-.32.68-1.27.67-2,0-.43.06-.91,0-1.33.87-.32.64-1.27.67-2,.02-.65.05-1.35,0-2,.84-.32.68-1.27.67-2,0-.43.06-.91,0-1.33.33-.61.64-1.3.67-2,.02-.42.06-.94,0-1.33l.67-1.33c.07-.07.04-1.58,0-2l.67-1.33c.07-.07.04-1.58,0-2l.67-1.33c.07-.07.05-1.6,0-2,.84-.32.68-1.27.67-2,0-.43.06-.91,0-1.33.87-.32.64-1.27.67-2,.02-.6.1-1.48,0-2,.64-.18.63-.77.67-1.33.08-1.32,0-2.68,0-4,1.03-3.32,2.59-7.18,2.67-10.67,0-.43.06-.92,0-1.33.83-.32.69-1.27.67-2-.01-.43.07-.94,0-1.33l.67-1.33c.18-.19-.15-1.49,0-2,1-3.33,3.07-10.58,3.1-13.78.02-2.56-1.17-5.42-1.1-8.89.04-1.93.7-3.71.67-6,0-.73.19-1.68-.67-2,.32-4.71.13-10.04-.67-14.67l-1.34-40c-3.71.98-13.05,1.05-13.98-3.68-1.26-6.48,4.91-7.63,5.29-13.62-.5-.7-13.49-3.43-15.98-5.36s-2.86-4.46.67-5.33ZM568.47,453.44c-.73.21-1.95,1.36-1.8,2.21,4.84,3.93,6.55-3.58,1.8-2.21ZM582,459.33h-26.67c-.31,2.27,2.04.77,2.06,3.65.03,7.03-11.73,8.78-16.72,11.02,1.66,5.27,4.04,3.36,7.64,3.29,15.46-.26,30.91-.51,46.36-.97,4.01-3.92,1.24-5.23-2.8-6.54-3.73-1.2-12.27-1.36-11.2-7.43.23-1.28,1.53-1.7,1.34-3.03ZM543,494.67c17.66-.2,35.35.15,53,0,.94-9.04-15.47-2.23-19.7-5.3-.68-.49-1.14-1.14-.96-2.03,1.16-1.3,16.27-.28,19.51-.83.78-.13,8.76-3.22,9.14-3.52,1.15-.9.57-2.06-.38-2.29-1.4-.34-8.86,1.36-11.27,1.37-2.06,0-3.88-.75-5.97-.76-17.28-.05-34.5.05-51.7.7v1.99c1.57-.43,6.67,1.32,7.39,2.45,2.14,3.35-.88,6.64-.72,7.87.2,1.56,1.58.35,1.67.35ZM596,500.66l-1.11-1.88c-15.77.69-32.95-1.31-48.58-.14-2.66.2-8.96.44-8.3,4.02l57.99-2ZM567.33,532.67c-.12-1.18-.66-1.26-.67-1.33-.13-1.75.03-3.57,0-5.33-.03-1.58.44-3.39-.67-4.67.21-3.77-.38-7.01-.67-10.67-.03-.4.68-4.31-.34-4.67-1.66-.59-.98,3.83-.99,4.67-.35,17.57.71,36.5,1.33,54,.29,8.23.66,15.15,1.33,23.33.3,3.63.39,7.35.67,10.99l2.66,19.67c-1.13,12.5,4.21,30.08,4,43.33,0,.6-.63-.13,0,2,.45,1.53.49,1.67.67,3.33.65,6.23,1.25,12.45,2,18.67.15,1.23.62,2.29.67,2.67.03.22-.03.45,0,.67.08.64-.08,1.36,0,2,.3,2.37.36,4.94.67,7.33.88.06,1.77-.01,2.66,0,2.34.05,15.63.45,16.37-.62,1.11-1.6-1.9-16.29-2.37-19.38-.85-5.54-1.63-10.38-2-16-.04-.57-.02-1.15-.67-1.33.51-3.88-1.33-8.86-2-12.67-.04-.22.04-.45,0-.67-.6-3.4-1.13-6.64-2-10,.07-.64-.1-1.38,0-2,.13-.79.57.05,0-1.33-.23-.56-.02-.64-.67-1.33-.25-10.1-3.08-20.05-4.67-30-.81-5.08-.8-17.03-3.33-20.67.14-7.59,1.33-15.13,2-22.67,1.61-18.18,3.02-36.48,4-54.66l-1.88,1.11c-.66,5.22-.77,10.61-1.53,15.8-.66,4.5-1.86,14.68-3.61,18.39-2.53,5.35-9.57,4.29-10.82-1.79-.42-2.05.05-4.15-.15-6.18ZM556,575.33c-1.5,11.24-3.24,22.88-5.33,34-.83,4.42-4.18,13.32-4,17.33-.7.55-.56,1.25-.67,2-.09.63.09,1.37,0,2-.01.07-.5.2-.67,1.33-.09.63.11,1.39,0,2-.04.22.04.45,0,.67-.56,3.11-1.38,6.22-2,9.33-.04.19-.54.68-.67,1.33-.12.6.12,1.4,0,2-.07.37-.48,1.06-.67,2-.08.41.08.92,0,1.33-.01.07-.46.25-.67,1.33-.15.79.15,1.87,0,2.67-.01.07-.46.26-.67,1.33-.12.6.12,1.4,0,2-.01.07-.46.26-.67,1.33-.08.41.08.92,0,1.33-.04.21.04.45,0,.67-.17.9-.5,1.76-.67,2.67-.01.07-.46.24-.67,1.33-.51,2.74-.2,6.78-.67,9.33-.12.65-.97,1.55-1.14,2.51-.56,3.08-4.19,18.79-3.22,20.19.17.25,2.48,1.31,2.7,1.31h35c.03-3.26-1.03-6.85-1.33-10-.34-3.47-.33-7.17-.67-10.67-.46-4.65-.88-9.34-1.33-14-.28-2.83-1.07-6.06-1.33-8.67-.13-1.3.13-2.7,0-4-2.61-25.77-5.9-51.52-8-77.33l-.67-66.33c-.34-2.55-3.41-1.52-5.34-1.67l3.34,69.34ZM578.67,506h-8.67c.87,4.36.73,30.86,2.68,32.67,1.07.99,1.13-.22,1.39-.93,3.43-9.31,3.17-21.87,4.6-31.74ZM603.5,694.65c0-.45-.37-.82-.82-.82s-.82.37-.82.82.37.82.82.82.82-.37.82-.82Z"/>
  <path class="st4" d="M608.67,636.67c-1.23,5.19-2.5,7.12-2.07,13.71.02.31-1.14.21-1.26.72-.39,1.74-.57,7.33-.67,9.56-.42,9.4-.4,20.59,0,30-1.76,1.96-2.35-3.03-2.5-3.84-2.16-11.67-5.71-30.77-6.17-42.16.39-.09,1.12.13,1.33,0,.08.41-.11,1.01,0,1.33.18.53.66.62.67.67.13,1.03-.05,2.25,0,3.33.05.98-.18,1.9.67,2.67-.03.64-.06,1.37,0,2,.13,1.32.41,1.28.67,2,.43,1.19,1.6,4.87,3.01,2.68,2.23-12.36,3.76-24.37,7.63-36.37,8.5-26.38,22.65-45.46,40.68-65.32,1.6-1.76,5.24-2.91,6.69-4.64,4.42-5.26,17.91-25.25,19.17-31.5.37-1.86-.25-4.39.23-5.77.4-1.14,3.02-.61,4.28-5.06,8.23-29.06,6.28-59.55-6.65-86.73-3.02-6.35-5.4-10.25-9.61-15.72-2.05-2.67-3.81-11.01-8.09-8.91.91-3.29-.89-2.98-1.6-4.03-4.13-6.09-7.82-7.61-13.07-11.64-4.75-3.65-7.21-7.58-13.39-11.26-30.11-17.87-69.22-22.7-102.99-10.46-8.86,3.21-17.22,7.99-25,13.67-.96.7-2.71.7-3.67,1.67-.88.89-.82,2.41-1.05,2.61-.46.38-2.29-.22-3.62.71-1.05.74-1.17,2.72-1.78,3.22-.56.46-2.13.42-3.16,1.17-3.84,2.81-15.21,14.47-17.25,18.75-.73,1.53-.52,3.22-1.1,4.23-.44.77-4.06,2.96-5.27,4.73-3.46,5.05.65,4.6.28,6.28-.31,1.43-3.17.69-3.88,1.12-.29.17-2.71,5.05-3.11,5.88-12.33,25.51-11.93,50.19-6.37,77.04.27,1.29-.2,2.81,0,3.94.14.78,1.8.15,2.03.37.46.46-.8,3.41-.52,4.8.17.85,4.69,11.24,5.28,12.11.82,1.21,2.32,1.66,2.45,1.88.5.88.78,5.57,2.53,8.48,11,18.34,27.81,31,39.92,48.08,4.22,5.96,8.34,13.46,11.03,19.97,1.47,3.56,3.65,6.79,4.01,10.67,2.47.89.4-3.61,2.32-2.66,1.33.66,1.03,2.77,1.01,4,1.52.54,2.71-1.73,4-1.06,2.33,1.22,3.87,13.27,5.37,16.06-3.02,10.28,0,19.25,3.29,28.99-.01.07.54.44.39,1.3-1.36,7.6-3.11,15.1-4.39,22.7-2.1.55-1.27-1.96-1.33-3.33-.04-1.11.02-2.22,0-3.33-.04-1.77.02-3.56,0-5.33-.01-.89.02-1.78,0-2.67-.05-1.77.08-3.57,0-5.33-.01-.22.01-.45,0-.67-.11-2.03-.51-3.59-.67-5.33-.06-.66.07-1.35,0-2-.38-3.47-.63-7.45-2-10.67,0-.44,0-.89,0-1.33.04-2.53-.62-2.82-1.33-4.67-.2-.51.25-1.57-.67-2-.86-6.4-2.28-10.31-4-16,.44-.35,1.78.96,1.22-1.54-.29-1.29-1.11-2.52-2.55-2.46h-.67c-.04-.21.05-.46,0-.67-.36-1.53-1.9-4.17-2.67-6-10.81-25.88-24.45-36.13-41.32-56.35-76.44-91.61,10.76-226.53,125.32-195.32,77.58,21.14,113.59,112.21,70.94,180.94-11.65,18.78-29.05,31.25-41.22,50.11-10.1,15.65-15.48,29.98-19.72,47.94ZM532.33,660v.67c.43-.22.43-.44,0-.67Z"/>
  <path class="st14" d="M608.67,636.67c3.16,4.61-1.75,7.88-1.39,13.03.15,2.22,1.57,3.28,1.4,5.23-.1,1.1-2.25,5.92-4.01,5.74.1-2.23.28-7.83.67-9.56.11-.51,1.28-.41,1.26-.72-.43-6.59.85-8.52,2.07-13.71Z"/>
  <path class="st14" d="M525.33,642.67c-1.6.75-1.76-2.94-2-4.67h.67c.71,1.85,1.38,2.13,1.33,4.67Z"/>
  <path class="st14" d="M519.33,620c1.72,5.69,3.14,9.6,4,16,.09.64-.09,1.36,0,2h-1.33c1.09-3.68-4.5-14.18-3.73-16.7.19-.63.58-.92,1.06-1.3Z"/>
  <path class="st14" d="M527.33,656.67c.15,1.75.56,3.31.67,5.33l-.65.33.65.33c.08,1.77-.05,3.56,0,5.33-2.33.08-1.84.41-2-1.63-.18-2.27-.08-5.08,0-7.4.04-1.28-.68-2.68,1.33-2.3Z"/>
  <path class="st14" d="M527.33,654.67c-.87.52-1.89,1.66-2-.32-.17-2.87-.64-6.09-.72-8.71-.03-.88.73-1.55.73-1.64,1.37,3.21,1.62,7.2,2,10.67Z"/>
  <path class="st14" d="M517.33,615.33l-4,.66,1.33-6.66c.76,1.83,2.31,4.47,2.67,6Z"/>
  <path class="st14" d="M528,670.67c.02,1.77-.04,3.56,0,5.33-.37-.06-1.25.11-1.33,0-.19-.25-.68-6.45,1.33-5.34Z"/>
  <path class="st8" d="M518,616c1.44-.06,2.26,1.17,2.55,2.46.56,2.5-.77,1.19-1.22,1.54-.18-.6-.53-.97-.67-1.33-.31-.85-.41-1.8-.67-2.67Z"/>
  <rect class="st14" x="602" y="672.66" width="7.33" height=".67" transform="translate(-67.51 1278.47) rotate(-89.98)"/>
  <rect class="st14" x="603" y="681" width="5.33" height=".67" transform="translate(-75.94 1286.7) rotate(-89.97)"/>
  <rect class="st14" x="605.34" y="662" width=".65" height="3.99"/>
  <path class="st14" d="M518.67,618.67c-2.19.43-1.05-1.13-1.33-2.67h.67c.26.87.35,1.82.67,2.67Z"/>
  <path class="st14" d="M605.99,686.66c-.23.45-1.13-.39-.65-1.33.23-.45,1.13.39.65,1.33Z"/>
  <rect class="st5" x="606.63" y="832.67" width="41.37" height="39.33"/>
  <rect class="st5" x="625.5" y="273.06" width="10.7" height="31.51" transform="translate(155.88 794.57) rotate(-71.4)"/>
  <rect class="st5" x="450" y="297.28" width="31.64" height="30.76" transform="translate(-93.18 265.06) rotate(-29)"/>
  <path class="st13" d="M541.33,614.67c-1.44-6.39-1.06-3.3-3.84-6.16-.63-.64-.79-2.59-1.37-3.63-5.99-10.64-12.25-26.62-17.14-38.19-2.82-6.66-2.18-10.79-8.29-16.38-1.89-1.73-4.12-2.16-6.02-4.64-2.22-2.89-3.24-7.66-5.73-10.27-9.94-10.4-18.27-14.19-24.53-28.8-6.37-14.85-2.95-26.64-1.08-41.61.29-2.34-.3-4.94.05-7.28,1.74-11.62,21.63-44.48,30.26-53.07,16.47-16.38,38.84-20.89,61.37-21.97,18.33-.87,30.07,1.84,46.25,9.74,17.62,8.6,43.54,34.57,49.54,53.12,2.79,8.63.89,30.61-2.68,38.92-1.49,3.46-3.87,6.15-5.37,9.29-1.24,2.6-1.77,6.69-2.82,8.52-.74,1.29-2.23,1.56-2.89,2.44-7.26,9.76-10.86,26.85-17.82,38.18-2.63,4.29-10.73,13.29-12.05,17.29-1.06,3.23-.14,6.26-.57,9.43-.65,4.84-10.18,16.64-13.16,21.51-3.46,5.67-6.52,12.1-10.12,17.92-.54.88-.58,1.94-2,1.64-.02-.15-.52-.96-.67-2-.02-.15.62.05,0-2-.26-.88-.87-.94-.67-2.67.01-.09.93-.62.66-1.33-.38-.07-1.25.1-1.33,0-.1-.13-.05-2.77,0-3.33.08-.87,2.13-3.01-.67-2.67.03-.66-.05-1.34,0-2,0-.07.94-.61.66-1.33-.38-.08-1.24.11-1.33,0-.08-.1-.05-2.24,0-2.67.02-.14.61-2.54.67-2.67.92-1.91,4.56-3.6,6.34-4.66,1.17-3.49,9.23-8.1,10.02-10.64,1.13-3.61-.13-10.12.37-14.29.96-8.03,5.78-14.97,10.63-20.71,5.55-6.58,14.51-26.74,18.67-35.33,4.8-9.91,3.71-18.92,4.72-29.28.52-5.34,3.53-7.75,3.24-12.74-.12-2.02-1-5.71-1.68-7.66-.94-2.72-7.53-16.91-8.96-18.86-.81-1.1-3.69-2.91-5.03-4.48-8.27-9.72-13.22-15.96-24.57-22.09-1.85-1-5.89-5.75-7.45-5.94-1.2-.15-2.39.65-3.31.57-3.68-.32-4.51-1.95-8.8-.02-1.04.47-1.72,1.72-2.66,2.01-4.1,1.26-4.44-2.41-7.33-3.06-4.61-1.04-7.93.71-11.93,1.12-3.03.31-6.86-.47-9.63.37-2.12.64-6.79,3.65-9.31,4.69-6.12,2.52-7.51,2.71-13.08,6.25-4.94,3.14-10.76,3.7-14.22,5.78-6.73,4.05-9.14,13.07-10.53,20.14-2.83,14.47-2.14,26.6-1.47,41.13.05,1.19-.83,2.49-.69,3.97.22,2.47,3.5,4.39,3.86,6.22.75,3.78-.34,9.61,1.1,14.22.64,2.04,2.06,3.01,2.6,4.73,1.61,5.12,1.96,11.87,3.95,17.38,1.55,4.27,4.01,6.54,5.97,10.7,3.75,7.95,7.03,20.75,13.56,27.11,1.19,1.16,2.66,1.26,3.93,2.74,2.67,3.1,3.34,8.94,5.79,12.21.93,1.24,2.84,2.03,3.13,2.87.89,2.57-.97,7.01.77,9.56-.15.51.18,1.81,0,2-.11.12-.94-.07-1.33,0-.28.76.65,1.24.66,1.33.07.4-.01.9,0,1.33-2.68-.31-.76,1.3-.67,2,.06.41,0,.91,0,1.33-1.47-.43-2.45,2.94-2.62,3.72-.54,2.43-.05,5.03-.05,6.95,0,1.32.08,2.68,0,4h-1.33Z"/>
  <path class="st8" d="M513.33,602.67c4.2.32,1.88-3.63,1.95-6.34.04-1.8.9-3.82.72-5.26-.41-3.3-8.49-19.77-10.36-23.7-1.51-3.17-8.79-7.07-10.62-10.05s-3.29-7.16-5.99-10.01c-1.96-2.07-4.83-1.84-6.38-3.62-1.45-1.67-2.92-6.11-4.36-8.31-7.73-11.79-17.83-21.77-19.65-37.02-1.53-12.91,1.38-43.71,6.57-55.48,8.37-18.98,19.44-38.78,34.97-52.69,7.52-6.74,28.88-16.15,38.99-18.02,26.21-4.85,45.95-4.55,70.64,6.35,6.42,2.83,11.1,4.66,17.03,8.97,3.54,2.57,5.89,4.27,9.63,6.37,3.95,2.21,10.7,7.01,13.55,10.45,1.78,2.16,3.22,6.48,4.73,8.6,1.82,2.54,6.95,6.62,8.9,9.77,2.2,3.57,8.57,14.89,9.53,18.47.62,2.34-.16,5.32.2,7.8.29,2.03,1.68,4.11,1.95,6.72.97,9.43-2.17,23.06-2.79,33.33s-7.36,16.33-10.87,25c-.98,2.42-1.04,4.9-1.99,7.34-1.28,3.29-4.71,6.39-4.2,10.15.18,1.31,2.09,6.45,2.71,8,.43,1.08,1.99,1.89,1.78,2.75-.06.24-2.45,3.92-2.64,4.08-1.09.91-5.09,2.54-6.7,3.96s-2.21,4.04-3.68,5.65c-1.04,1.13-4.11,2.6-4.58,3.42-.61,1.06-.33,2.72-1.1,4.23-.92,1.8-4.44,4.25-5.92,6.08-1.15,1.42-1.54,3.25-2.67,4.69-2.79,3.55-6.74,6.18-8.96,11.01-.48,1.05-.2,2.65-.68,3.33s-2.01.44-2.27.71c-.47.5.42,4.65-.7,6.19-.48.65-1.59.14-2.11.81-.75.96-1,4.08-1.68,5.53-.76,1.62-6.14,9.29-6.28,9.87-1.43,6.15-2.95,12.21-4.2,18.42-.25,1.22-1.97,2.32-2.3,3.6-.48,1.83.22,8.88-1.9,9.46-.75.21-1.85-.66-2.53-.5s-1.04,1.45-1.72,1.88c-.21.13-.95-.09-1.33,0-.03-.66.02-1.33,0-2-.1-3.07.22-2.42-.67-6-.54-2.16-1.47-4.38-1.33-6.67.03-.55,2.05-2.34-.67-2-.02-.85-.08-1.83,0-2.67.11-1.12,2.17-3.72-.67-3.33.04-.44-.03-.89,0-1.33.06-.81,2.15-3.02-.67-2.67-.14-2.45-.36-4.91-.67-7.33,1.42.31,1.45-.76,2-1.64,3.6-5.82,6.65-12.25,10.12-17.92,2.98-4.87,12.51-16.66,13.16-21.51.43-3.17-.49-6.2.57-9.43,1.31-4,9.42-13,12.05-17.29,6.95-11.34,10.56-28.42,17.82-38.18.66-.88,2.15-1.16,2.89-2.44,1.04-1.83,1.58-5.92,2.82-8.52,1.51-3.15,3.88-5.84,5.37-9.29,3.58-8.31,5.47-30.3,2.68-38.92-6.01-18.56-31.92-44.52-49.54-53.12-16.18-7.9-27.92-10.61-46.25-9.74-22.52,1.07-44.9,5.59-61.37,21.97-8.63,8.59-28.52,41.45-30.26,53.07-.35,2.34.24,4.94-.05,7.28-1.87,14.97-5.29,26.76,1.08,41.61,6.27,14.61,14.59,18.4,24.53,28.8,2.49,2.6,3.51,7.38,5.73,10.27,1.9,2.48,4.13,2.92,6.02,4.64,6.11,5.59,5.47,9.71,8.29,16.38,4.89,11.57,11.15,27.56,17.14,38.19.59,1.04.75,2.99,1.37,3.63,2.78,2.85,2.4-.23,3.84,6.16.14.62.63,1.16.67,1.33.1.52.02,1.4,0,2-2.68-.31-.76,1.29-.67,2,.06.42,0,.9,0,1.33-2.67-.3-.77,1.27-.67,2,.05.4.07,1.93,0,2-.11.12-.94-.08-1.33,0-.27.72.66,1.25.66,1.33.04.42.07,1.93,0,2-.11.12-.94-.08-1.33,0-.27.72.66,1.25.66,1.33.04.42.07,1.93,0,2-.11.12-.94-.08-1.33,0-.28.76.65,1.25.66,1.33.06.4.02.91,0,1.33-2.68-.31-.76,1.29-.67,2,.06.42,0,.9,0,1.33-2.71-.33-.71,1.44-.67,2,.05.65.02,1.35,0,2-2.68-.31-.76,1.29-.67,2,.06.42,0,.9,0,1.33-2.68-.31-.76,1.29-.67,2,.06.41,0,.9,0,1.33-1.77-.34-1.77.71-.67,2-.67,2.66-1.53,5.28-2,8-3.3-9.74-6.31-18.71-3.29-28.99-1.5-2.79-3.04-14.84-5.37-16.06-1.29-.68-2.48,1.6-4,1.06.01-1.22.32-3.34-1.01-4-1.92-.95.16,3.55-2.32,2.66-.36-3.87-2.54-7.11-4.01-10.67Z"/>
  <path class="st0" d="M546.67,592c-1.75-2.55.11-6.99-.77-9.56-.29-.83-2.2-1.63-3.13-2.87-2.45-3.27-3.12-9.11-5.79-12.21-1.27-1.48-2.74-1.58-3.93-2.74-6.53-6.36-9.81-19.16-13.56-27.11-1.96-4.15-4.42-6.43-5.97-10.7-1.99-5.51-2.34-12.26-3.95-17.38-.54-1.72-1.97-2.69-2.6-4.73-1.44-4.61-.34-10.43-1.1-14.22-.36-1.83-3.64-3.74-3.86-6.22-.13-1.48.75-2.79.69-3.97-.67-14.54-1.36-26.67,1.47-41.13,1.38-7.07,3.8-16.09,10.53-20.14,3.46-2.08,9.28-2.64,14.22-5.78,5.57-3.55,6.96-3.73,13.08-6.25,2.52-1.04,7.19-4.05,9.31-4.69,2.77-.84,6.6-.06,9.63-.37,4-.41,7.32-2.16,11.93-1.12,2.89.65,3.24,4.32,7.33,3.06.94-.29,1.62-1.54,2.66-2.01,4.29-1.93,5.13-.3,8.8.02.92.08,2.11-.72,3.31-.57,1.57.19,5.6,4.94,7.45,5.94,11.36,6.13,16.3,12.38,24.57,22.09,1.34,1.58,4.22,3.38,5.03,4.48,1.43,1.94,8.03,16.14,8.96,18.86.67,1.95,1.56,5.65,1.68,7.66.29,4.99-2.72,7.4-3.24,12.74-1.01,10.36.08,19.37-4.72,29.28-4.16,8.59-13.11,28.75-18.67,35.33-4.84,5.74-9.66,12.68-10.63,20.71-.5,4.17.76,10.69-.37,14.29-.8,2.54-8.85,7.15-10.02,10.64-1.78,1.06-5.43,2.75-6.34,4.66h-1.33c.01-.88-.07-1.79,0-2.67.05-.59,2.04-2.33-.67-2-.08-.64.07-1.35,0-2,1.11-1.59,1.11-4.41,0-6,.07-1.33-.03-2.67,0-4,2.87.41.74-2.31.67-3.33-.05-.66.03-1.34,0-2,6.71-.78,9.76-8.57,12.33-14,3.81-8.03,10.06-16.59,13.32-24.68.67-1.66.11-3.36.85-5.15.52-1.24,2.3-2.51,3.19-4.14,4.03-7.44,6.54-15.91,10.67-23.33,1.6-5.9-1.77-5.54-2.32-9.06-1.41-9.13-.54-20.92-2.19-29.81-.36-1.91-5.24-11.49-6.48-13.35-.47-.71-1.7-.89-2.33-1.82-3.95-5.85-5.37-9.51-11.37-13.98-10.79-8.05-24.71-10.93-37.97-11.36-6.02-.19-19.23-.07-24.34,3.05-2.99,1.83-6.49,5.2-9.4,7.27-3.79,2.69-12.43,8.05-14.3,12.37-1.56,3.61-1,7.63-1.82,10.84-.39,1.52-2.4,2.85-2.99,4.34-2.09,5.32-.85,28.52-.82,35.84.03,6.78,2.42,18.66,4.6,25.34,1.13,3.45,3.56,5.68,4.83,8.5,2.47,5.51,4.03,12.09,7.33,17.34s17.46,18.12,18.52,22.92c.37,1.66-.92,6.28,2.02,6.2-.07,3.47,1.12,6.32,1.1,8.89-.03,3.2-2.1,10.45-3.1,13.78Z"/>
  <path class="st6" d="M548.67,569.33c-2.94.08-1.65-4.54-2.02-6.2-1.06-4.8-15.11-17.48-18.52-22.92s-4.86-11.83-7.33-17.34c-1.27-2.83-3.7-5.05-4.83-8.5-2.18-6.69-4.57-18.56-4.6-25.34-.04-7.32-1.28-30.52.82-35.84.59-1.49,2.6-2.82,2.99-4.34.82-3.21.27-7.23,1.82-10.84,1.86-4.32,10.5-9.68,14.3-12.37,2.91-2.07,6.4-5.44,9.4-7.27,5.11-3.12,18.32-3.24,24.34-3.05,13.27.43,27.19,3.31,37.97,11.36,6,4.48,7.42,8.13,11.37,13.98.63.93,1.86,1.11,2.33,1.82,1.24,1.86,6.12,11.45,6.48,13.35,1.66,8.88.78,20.68,2.19,29.81.55,3.52,3.92,3.16,2.32,9.06-4.13,7.42-6.63,15.89-10.67,23.33-.89,1.64-2.67,2.91-3.19,4.14-.75,1.79-.19,3.49-.85,5.15-3.26,8.09-9.51,16.65-13.32,24.68-2.57,5.43-5.62,13.22-12.33,14-.06-1.54-.04-3.13,0-4.67,2.81.36.72-1.86.67-2.67-.12-1.71-.04-3.6,0-5.33,2.87.41.73-2.32.67-3.33-.11-1.69-.06-3.63,0-5.33,1.92.43,1.62-.26,2.42-1.23,3.84-4.64,4.09-8.61,6.43-13.59,4.07-8.67,17.22-29.57,17.01-38.19-.08-3.14-1.91-6.06-.53-9.66,3.6-2.22,3.85-4.52-.67-5.33-1.63-4.77-.74-9.42-1.4-14.26-1.01-7.43-11.22-25.5-18.1-28.56-3.34-1.48-6.83-2.91-10.25-4.41-7.94-3.48-26.73-3.81-35.05-1.24-4.85,1.5-17.94,10.21-19.9,14.76-1.69,3.91-5.5,17.33-5.86,21.46-.41,4.59.62,9.52-.08,14.25-3.53.87-3.18,3.38-.67,5.33.7,7.78,1.48,16.1,4.23,23.44,1.22,3.24,4.19,9.86,5.86,12.81,1.25,2.21,5.16,4.39,6.08,6.59,1.13,2.69.17,6.29,1.92,9.41.7,1.24,2.16,1.96,2.86,3.14,1.37,2.34,1.75,6.76,5.06,7.28.8,4.63.99,9.95.67,14.67-.04.56-2.05,2.34.67,2,.03,2.29-.63,4.07-.67,6Z"/>
  <path class="st10" d="M613.33,476.67c-3.92-.71-8.02-.72-12-.67-.14-1.52,1.53-1.93,1.37-3.63-.35-3.75-13.76-8.19-17.37-8.37-1.15-1.29,4.19-3.55,4.59-5.13,1.26-4.96-12.06-3.01-14.14-3.51-.54-.13-1.54-3.13-2.16-3.98-.43-.58-2.28-1.4-2.28-1.72v-14.67c0-.56-1.51-1.25-2.32-.99-1.6.5-.92,12.55-1.66,15.53-.17.7-2.41,1.02-3.37,2.11-1.03,1.16-1.22,3.57-1.94,4.05-2.36,1.59-15.04-2.24-13.09,5.02.6,2.24,4.49,1.44,2.97,3.87-.46.74-13.54,4.01-15.9,5.76-3.69,2.75-.69,6.99-1.35,7.65-3.55.15-8.61-.17-12,.67.71-4.74-.32-9.66.08-14.25.37-4.14,4.18-17.56,5.86-21.46,1.97-4.56,15.05-13.26,19.9-14.76,8.32-2.57,27.12-2.24,35.05,1.24,3.42,1.5,6.91,2.93,10.25,4.41,6.88,3.06,17.09,21.13,18.1,28.56.66,4.84-.23,9.49,1.4,14.26Z"/>
  <path class="st13" d="M550.67,609.33c1.76.26,2.55-3.9,4.36-1.35.99,1.39-2.45,12.38,1.44,14.72,1.2.72,3.35.56,4.43,1.24,2.79,1.77,2.71,20.17,3.19,24.32.2,1.73.22,3.71,2.58,3.07.13,1.3-.13,2.7,0,4-1.13,1.82-1.49,8.85,1.33,8.67.46,4.66.88,9.35,1.33,14-1.99.39-1.2-.96-1.43-2.2-.43-2.36-.57-4.78-1.29-7.08-1.51-.84-3.29,1.31-4.15,1.16-.69-.12-1.24-1.29-2.74-1.24-2.39.08-4,3.63-6.7.65-.25-.27-3.34-5.96-3.53-6.47-.53-1.43-2.42-7.88-2.69-9.31-.56-3.01,1.32-10.11-2.82-9.51h-.67c.62-3.11,1.44-6.22,2-9.33l.65-.33-.65-.33c.11-.61-.09-1.37,0-2,1.52.24,1.88-.27.67-1.33.09-.63-.09-1.37,0-2,2.83.25.68-1.81.67-2-.18-4.01,3.17-12.91,4-17.33Z"/>
  <path class="st10" d="M543,494.67c-.09,0-1.47,1.21-1.67-.35-.16-1.23,2.86-4.52.72-7.87-.72-1.13-5.82-2.88-7.39-2.45v-1.99c17.2-.65,34.42-.76,51.7-.7,2.09,0,3.91.76,5.97.76,2.41,0,9.87-1.7,11.27-1.37.95.23,1.53,1.39.38,2.29-.39.3-8.36,3.39-9.14,3.52-3.24.55-18.35-.47-19.51.83-.17.89.29,1.54.96,2.03,4.24,3.07,20.64-3.75,19.7,5.3-17.65.15-35.34-.2-53,0Z"/>
  <path class="st13" d="M582.67,603.33c1.59,9.95,4.41,19.9,4.67,30-.07-.07-.76.14-1.15-.17-.71-.57-.52-2.24-2.18-1.83-.24,3.32.35,7.01-.06,10.28-.34,2.71-2.17,6.03-2.56,8.78-.33,2.34.28,4.8-.2,7.13-.14.66-2.87,7.58-3.17,7.98-.69.94-2.23,1.56-3.35,1.83-.17-1.66-.22-1.8-.67-3.33v-2c.21-13.26-5.13-30.83-4-43.33.05-.56,1.05-4.82,1.26-5.07.96-1.17,2.67-.52,3.47-1.35,2.55-2.65-.74-11.83,7.94-8.91Z"/>
  <path class="st10" d="M522,484c2.49,1.93,15.47,4.66,15.98,5.36-.38,5.99-6.56,7.15-5.29,13.62.92,4.73,10.26,4.66,13.98,3.68l1.34,40c-3.31-.52-3.69-4.94-5.06-7.28-.69-1.19-2.16-1.91-2.86-3.14-1.76-3.12-.8-6.72-1.92-9.41-.92-2.2-4.83-4.38-6.08-6.59-1.67-2.95-4.64-9.57-5.86-12.81-2.75-7.34-3.53-15.66-4.23-23.44Z"/>
  <path class="st10" d="M582,459.33c.19,1.33-1.11,1.75-1.34,3.03-1.07,6.08,7.48,6.23,11.2,7.43,4.05,1.3,6.82,2.62,2.8,6.54-15.45.46-30.9.7-46.36.97-3.6.06-5.98,1.98-7.64-3.29,4.99-2.25,16.75-4,16.72-11.02-.01-2.88-2.37-1.38-2.06-3.65h26.67Z"/>
  <path class="st8" d="M544,644c4.14-.6,2.26,6.5,2.82,9.51.27,1.43,2.15,7.89,2.69,9.31.19.51,3.28,6.2,3.53,6.47,2.7,2.99,4.31-.56,6.7-.65,1.5-.05,2.05,1.12,2.74,1.24.86.15,2.63-2.01,4.15-1.16.72,2.29.86,4.71,1.29,7.08.23,1.24-.56,2.59,1.43,2.2.34,3.49.33,7.2.67,10.67-2.11.49-.91-2.08-2.42-2.61-1.91-.67-4.83,1.32-7.22,1.3-3-.04-6.06-1.71-8.86-2.53-1.16-.34-2.66.1-3.73-.27-.36-.12-4.76-4.98-5.13-5.53-1.36-1.98-.39-5.02-4.64-4.36.47-2.55.16-6.59.67-9.33,1.58.2,1.8-.18.67-1.33.17-.91.5-1.77.67-2.67l.66-.33-.66-.34c.08-.41-.08-.92,0-1.33,1.52.24,1.88-.27.67-1.33.12-.6-.12-1.4,0-2,1.53.24,1.87-.26.67-1.33.15-.8-.15-1.87,0-2.67,1.51.25,1.9-.3.67-1.33.08-.41-.08-.93,0-1.33,1.85.33,1.08-.6,1.33-1.33.38-1.11.66-1.06.67-2.67,0-.44,0-.89,0-1.33Z"/>
  <path class="st10" d="M614,482c-1.38,3.6.45,6.53.53,9.66.21,8.62-12.93,29.52-17.01,38.19-2.34,4.98-2.59,8.95-6.43,13.59-.8.97-.5,1.65-2.42,1.23.1-2.82,1.11-6.75,1.33-9.67.72-9.53,1.4-19.05,2.09-28.57.74-2.24,9.08-1.42,10.88-5.12,3.06-6.29-2.98-6.7-2.32-11.6.38-2.8,10.65-6.03,13.35-7.7Z"/>
  <path class="st7" d="M538,674.67c4.25-.67,3.28,2.38,4.64,4.36.38.55,4.78,5.41,5.13,5.53,1.07.36,2.58-.07,3.73.27,2.8.82,5.85,2.49,8.86,2.53,2.39.03,5.31-1.97,7.22-1.3,1.51.53.3,3.1,2.42,2.61.31,3.15,1.36,6.74,1.33,10h-35c-.22,0-2.53-1.06-2.7-1.31-.97-1.4,2.66-17.11,3.22-20.19.18-.96,1.02-1.85,1.14-2.51Z"/>
  <path class="st10" d="M567.33,532.67c.2,2.04-.27,4.13.15,6.18,1.25,6.07,8.28,7.14,10.82,1.79,1.75-3.7,2.95-13.89,3.61-18.39.76-5.19.87-10.58,1.53-15.8l1.88-1.11c-.98,18.19-2.39,36.48-4,54.66-4.32-2.2-5.95,1.44-9.39,2.94-1.68.73-4.71,1.18-6.61,1.72-.63-17.5-1.68-36.43-1.33-54h1.33c.28,3.66.87,6.9.67,10.67,0,.06-.53-.1-.65.99-.19,1.75-.62,4.27,1.31,3.67.03,1.76-.13,3.58,0,5.33-1.2,1.08-.86,1.57.67,1.33Z"/>
  <path class="st8" d="M574.67,667.33c1.13-.27,2.66-.89,3.35-1.83.3-.41,3.03-7.32,3.17-7.98.48-2.33-.13-4.79.2-7.13.39-2.75,2.22-6.07,2.56-8.78.41-3.27-.18-6.95.06-10.28,1.66-.41,1.48,1.26,2.18,1.83.38.31,1.08.1,1.15.17.65.7.43.77.67,1.33-.64.19-.65.76-.67,1.33-.05,1.5.6,1.76.67,2,.87,3.36,1.4,6.6,2,10l-.65.33.65.33c.67,3.81,2.51,8.79,2,12.67-.05.4-1.96,1.58.67,1.33.37,5.62,1.15,10.46,2,16-2.29.55-1.2-3.12-2.39-3.38-1.99-.42-3.89,2.28-6.67,2.65-7.26.96-7.24-4.15-7.6,5.76-.05,1.28.68,2.67-1.34,2.3-.75-6.21-1.35-12.44-2-18.67Z"/>
  <path class="st0" d="M558.67,574c2.1,25.81,5.39,51.57,8,77.33-2.36.63-2.38-1.34-2.58-3.07-.48-4.15-.39-22.55-3.19-24.32-1.07-.68-3.23-.52-4.43-1.24-3.89-2.34-.45-13.33-1.44-14.72-1.81-2.55-2.6,1.61-4.36,1.35,2.1-11.12,3.84-22.76,5.33-34l2.67-1.33Z"/>
  <path class="st7" d="M576.67,686c2.01.37,1.29-1.02,1.34-2.3.36-9.91.34-4.81,7.6-5.76,2.77-.37,4.68-3.07,6.67-2.65,1.19.25.11,3.93,2.39,3.38.47,3.09,3.49,17.78,2.37,19.38-.74,1.07-14.03.67-16.37.62.12-1.44-1.56-2.1-1.87-3.14-.59-1.99.89-4.74-1.47-4.2-.08-.64.08-1.36,0-2l.66-.34-.66-.33c-.05-.38-.52-1.43-.67-2.67Z"/>
  <path class="st0" d="M566.67,588c2.38,0,1.93-3.47,3.63-4.71,1.19-.87,5.07-1.72,6.63-2.68.31,1.44,2.31,1.92,2.41,2.05,2.53,3.63,2.52,15.58,3.33,20.67-8.67-2.92-5.39,6.26-7.94,8.91-.8.83-2.51.19-3.47,1.35-.21.25-1.21,4.51-1.26,5.07l-2.66-19.67c-.28-3.64-.37-7.37-.67-10.99Z"/>
  <path class="st6" d="M581.33,560c-.67,7.53-1.86,15.08-2,22.67-.1-.14-2.1-.62-2.41-2.05-1.56.96-5.44,1.81-6.63,2.68-1.69,1.24-1.25,4.71-3.63,4.71-.67-8.18-1.04-15.1-1.33-23.33,1.9-.55,4.93-.99,6.61-1.72,3.43-1.5,5.07-5.14,9.39-2.94Z"/>
  <path class="st10" d="M558.67,574l-2.67,1.33-3.34-69.34c1.93.15,5-.88,5.34,1.67l.67,66.33Z"/>
  <path class="st10" d="M578.67,506c-1.43,9.87-1.18,22.43-4.6,31.74-.26.71-.32,1.92-1.39.93-1.95-1.81-1.81-28.31-2.68-32.67h8.67Z"/>
  <path class="st10" d="M596,500.66l-57.99,2c-.66-3.59,5.65-3.82,8.3-4.02,15.63-1.17,32.81.83,48.58.14l1.11,1.88Z"/>
  <path class="st0" d="M545.33,600c-.07,3.49-1.64,7.34-2.67,10.67,0-1.92-.49-4.52.05-6.95.17-.78,1.15-4.15,2.62-3.72Z"/>
  <path class="st6" d="M568.47,453.44c4.75-1.37,3.04,6.14-1.8,2.21-.15-.85,1.07-2,1.8-2.21Z"/>
  <path class="st0" d="M568,664c-2.82.19-2.46-6.84-1.33-8.67.26,2.61,1.06,5.83,1.33,8.67Z"/>
  <path class="st8" d="M577.33,691.33c2.36-.54.88,2.21,1.47,4.2.3,1.03,1.99,1.69,1.87,3.14-.89-.02-1.78.05-2.66,0-.31-2.39-.37-4.96-.67-7.33Z"/>
  <path class="st4" d="M586.67,581.33c-.37-3.24-.14-3.2,0-6,1.11,1.59,1.11,4.41,0,6Z"/>
  <path class="st6" d="M564,510.67c.02-.84-.66-5.26.99-4.67,1.02.36.31,4.27.34,4.67h-1.33Z"/>
  <path class="st6" d="M566.67,526c-1.94.6-1.5-1.92-1.31-3.67.12-1.09.64-.93.65-.99,1.11,1.28.64,3.08.67,4.67Z"/>
  <path class="st4" d="M596,642.67l-.67-6c.89,3.58.57,2.93.67,6Z"/>
  <path class="st4" d="M592.67,622c2.84-.39.78,2.21.67,3.33-.98-.51-.75-2.31-.67-3.33Z"/>
  <path class="st4" d="M587.33,568c.07,1.02,2.2,3.74-.67,3.33.02-1.07-.4-2.77.67-3.33Z"/>
  <path class="st4" d="M588.67,550c.07,1.02,2.21,3.74-.67,3.33.02-1.07-.4-2.77.67-3.33Z"/>
  <path class="st4" d="M588,558.67c.06.81,2.15,3.02-.67,2.67.02-.88-.34-2.2.67-2.67Z"/>
  <path class="st4" d="M588.67,588c-.06.12-.65,2.53-.67,2.67-.98-.45-.68-1.79-.67-2.67h1.33Z"/>
  <path class="st4" d="M588.67,596.67c2.8-.34.75,1.79.67,2.67-.95-.44-.71-1.81-.67-2.67Z"/>
  <path class="st4" d="M592,618c2.82-.35.72,1.86.67,2.67-1.02-.47-.62-1.79-.67-2.67Z"/>
  <path class="st13" d="M544,645.33c0,1.6-.29,1.56-.67,2.67l-.67-.67c.12-.6-.12-1.4,0-2h1.33Z"/>
  <path class="st0" d="M546,596.67c.02.73.17,1.68-.67,2-.09-.7-2.01-2.31.67-2Z"/>
  <path class="st4" d="M536,648.67c-.01,1.47-.6,1.74-.67,2-1.1-1.29-1.1-2.34.67-2Z"/>
  <path class="st4" d="M543.33,648c-.25.73.52,1.67-1.33,1.33.18-.94.59-1.63.67-2l.67.67Z"/>
  <path class="st4" d="M536.67,645.33c.01.73.17,1.68-.67,2-.1-.71-2.01-2.31.67-2Z"/>
  <path class="st4" d="M537.33,642c-.02.73.2,1.68-.67,2-.1-.71-2.01-2.31.67-2Z"/>
  <path class="st4" d="M538,638c.01.73.17,1.68-.67,2-.04-.56-2.05-2.33.67-2Z"/>
  <path class="st4" d="M593.33,628c2.72-.34.7,1.45.67,2-.86-.32-.65-1.27-.67-2Z"/>
  <path class="st4" d="M546.67,626.67c0,.19,2.16,2.25-.67,2,.11-.75-.03-1.45.67-2Z"/>
  <path class="st4" d="M541.33,621.33c.01.73.17,1.68-.67,2-.1-.73-2.01-2.3.67-2Z"/>
  <path class="st4" d="M542,618c-.03.73.2,1.68-.67,2-.1-.71-2.01-2.31.67-2Z"/>
  <path class="st4" d="M586.67,583.33c2.71-.33.71,1.41.67,2-.92-.33-.58-1.29-.67-2Z"/>
  <path class="st0" d="M549.33,563.33c-2.71.34-.7-1.44-.67-2,.85.32.66,1.27.67,2Z"/>
  <path class="st4" d="M538.67,634.67c-.03.7-.34,1.39-.67,2-.1-.71-2.01-2.31.67-2Z"/>
  <path class="st4" d="M540.67,658c1.21,1.06.85,1.57-.67,1.33.2-1.07.65-1.26.67-1.33Z"/>
  <circle class="st9" cx="602.68" cy="694.65" r=".82"/>
  <path class="st6" d="M567.33,532.67c-1.53.23-1.87-.26-.67-1.33,0,.07.55.16.67,1.33Z"/>
  <path class="st4" d="M544,644c0,.44,0,.89,0,1.33h-1.33c.13-.65.63-1.14.67-1.33h.67Z"/>
  <path class="st4" d="M539.33,664c1.14,1.15.91,1.54-.67,1.33.2-1.1.65-1.26.67-1.33Z"/>
  <path class="st4" d="M592.67,662.67c-2.62.25-.72-.93-.67-1.33.64.18.63.77.67,1.33Z"/>
  <path class="st4" d="M588,593.33c.09.11.95-.07,1.33,0,.27.72-.66,1.25-.66,1.33l-.67-1.33Z"/>
  <path class="st0" d="M546.67,594l-.67,1.33c-.01-.09-.94-.57-.66-1.33.39-.08,1.22.11,1.33,0Z"/>
  <path class="st4" d="M541.33,654.67c1.2,1.07.86,1.57-.67,1.33.21-1.08.65-1.26.67-1.33Z"/>
  <path class="st4" d="M589.33,602.67c.08.11.95-.07,1.33,0,.27.71-.65,1.24-.66,1.33l-.67-1.33Z"/>
  <path class="st4" d="M542,650.67c1.23,1.03.84,1.58-.67,1.33.21-1.08.65-1.26.67-1.33Z"/>
  <path class="st4" d="M542.67,614.67c-.03.56-.02,1.16-.67,1.33-.04-.18-.53-.71-.67-1.33h1.33Z"/>
  <path class="st4" d="M588,636h-.67c.02-.57.03-1.15.67-1.33.57,1.38.13.54,0,1.33Z"/>
  <path class="st4" d="M539.33,632l-.67,1.33c-.01-.08-.94-.57-.66-1.33.39-.08,1.22.11,1.33,0Z"/>
  <path class="st4" d="M546,630.67c1.21,1.06.85,1.57-.67,1.33.17-1.13.66-1.26.67-1.33Z"/>
  <path class="st4" d="M540,628.67l-.67,1.33c0-.07-.93-.61-.66-1.33.39-.08,1.22.11,1.33,0Z"/>
  <path class="st4" d="M540.67,625.33l-.67,1.33c0-.07-.93-.61-.66-1.33.39-.08,1.22.11,1.33,0Z"/>
  <path class="st9" d="M574,664c-.63-2.13,0-1.4,0-2v2Z"/>
  <path class="st13" d="M588,638c-.06-.24-.72-.5-.67-2h.67c-.1.62.07,1.36,0,2Z"/>
  <path class="st4" d="M590.67,608.67v-2c.62,2.05-.02,1.85,0,2Z"/>
  <path class="st8" d="M577.33,689.33c-.03-.22.03-.45,0-.67l.66.33-.66.34Z"/>
  <path class="st4" d="M540,661.33c.04-.21-.04-.45,0-.67l.66.34-.66.33Z"/>
  <path class="st4" d="M590,648.67l-.65-.33.65-.33c.04.22-.04.45,0,.67Z"/>
  <path class="st4" d="M545.33,634.67c.04-.22-.04-.45,0-.67l.65.33-.65.33Z"/>
  <path class="st7" d="M513.33,602.67c-2.68-6.51-6.81-14.02-11.03-19.97-12.1-17.09-28.92-29.74-39.92-48.08-1.75-2.91-2.03-7.6-2.53-8.48-.12-.22-1.63-.67-2.45-1.88-.59-.87-5.11-11.26-5.28-12.11-.28-1.38.98-4.34.52-4.8-.23-.23-1.89.41-2.03-.37-.2-1.12.27-2.64,0-3.94-5.56-26.85-5.96-51.53,6.37-77.04.4-.83,2.83-5.71,3.11-5.88.71-.43,3.58.31,3.88-1.12.36-1.68-3.74-1.23-.28-6.28,1.21-1.77,4.83-3.96,5.27-4.73.58-1.01.38-2.7,1.1-4.23,2.04-4.28,13.42-15.94,17.25-18.75,1.03-.75,2.59-.71,3.16-1.17.61-.5.72-2.48,1.78-3.22,1.34-.94,3.16-.33,3.62-.71.23-.19.17-1.72,1.05-2.61.96-.97,2.71-.98,3.67-1.67,7.78-5.68,16.13-10.46,25-13.67,33.77-12.24,72.88-7.41,102.99,10.46,6.19,3.67,8.64,7.61,13.39,11.26,5.26,4.04,8.94,5.56,13.07,11.64.72,1.06,2.52.74,1.6,4.03,4.28-2.1,6.03,6.24,8.09,8.91,4.22,5.47,6.59,9.37,9.61,15.72,12.94,27.18,14.89,57.67,6.65,86.73-1.26,4.44-3.88,3.92-4.28,5.06-.49,1.38.14,3.91-.23,5.77-1.26,6.24-14.75,26.24-19.17,31.5-1.45,1.73-5.09,2.88-6.69,4.64-18.02,19.86-32.17,38.95-40.68,65.32-3.87,12-5.4,24.01-7.63,36.37-1.41,2.19-2.59-1.49-3.01-2.68l-.67-2c-.06-.63-.03-1.36,0-2,.07-1.48,1.83-3.03-.67-2.67-.05-1.09.13-2.3,0-3.33l-.67-.67c-.11-.32.08-.92,0-1.33.68-.43,1.04-1.73,1.72-1.88s1.78.71,2.53.5c2.12-.58,1.43-7.63,1.9-9.46.33-1.28,2.05-2.38,2.3-3.6,1.25-6.21,2.77-12.27,4.2-18.42.14-.59,5.52-8.26,6.28-9.87.68-1.44.93-4.56,1.68-5.53.52-.67,1.63-.16,2.11-.81,1.12-1.53.23-5.68.7-6.19.26-.27,1.76,0,2.27-.71s.2-2.29.68-3.33c2.21-4.83,6.17-7.47,8.96-11.01,1.13-1.44,1.52-3.27,2.67-4.69,1.48-1.83,5-4.29,5.92-6.08.77-1.51.49-3.17,1.1-4.23.47-.82,3.54-2.29,4.58-3.42,1.47-1.6,2.14-4.29,3.68-5.65s5.61-3.05,6.7-3.96c.19-.16,2.58-3.84,2.64-4.08.2-.86-1.35-1.67-1.78-2.75-.62-1.55-2.53-6.7-2.71-8-.51-3.76,2.92-6.86,4.2-10.15.95-2.44,1.02-4.92,1.99-7.34,3.5-8.67,10.24-14.64,10.87-25s3.76-23.89,2.79-33.33c-.27-2.61-1.66-4.68-1.95-6.72-.36-2.48.42-5.46-.2-7.8-.96-3.58-7.33-14.9-9.53-18.47-1.94-3.15-7.08-7.22-8.9-9.77-1.51-2.12-2.95-6.44-4.73-8.6-2.85-3.44-9.59-8.24-13.55-10.45-3.75-2.1-6.1-3.79-9.63-6.37-5.92-4.31-10.61-6.14-17.03-8.97-24.68-10.9-44.43-11.2-70.64-6.35-10.11,1.87-31.46,11.28-38.99,18.02-15.53,13.91-26.61,33.71-34.97,52.69-5.19,11.76-8.1,42.57-6.57,55.48,1.81,15.25,11.91,25.24,19.65,37.02,1.44,2.19,2.91,6.64,4.36,8.31,1.55,1.78,4.42,1.55,6.38,3.62,2.7,2.85,4.17,7.03,5.99,10.01s9.11,6.88,10.62,10.05c1.87,3.93,9.95,20.4,10.36,23.7.18,1.44-.68,3.46-.72,5.26-.06,2.71,2.25,6.67-1.95,6.34Z"/>
  <path class="st8" d="M598,650c2.5-.36.73,1.19.67,2.67-.84-.76-.62-1.69-.67-2.67Z"/>
  <path class="st8" d="M599.33,656.67c-.26-.72-.54-.68-.67-2l.67,2Z"/>
  <path class="st9" d="M528,662.67l-.65-.33.65-.33c.01.22-.01.44,0,.67Z"/>
  <path class="st8" d="M532.33,660c.43.22.43.44,0,.67v-.67Z"/>
  <path class="st8" d="M598,646.67s-.48-.14-.67-.67l.67.67Z"/>
</svg>